<?xml version="1.0" encoding="utf-8"?>
<!-- Generator: Adobe Illustrator 17.0.0, SVG Export Plug-In . SVG Version: 6.00 Build 0)  -->
<!DOCTYPE svg PUBLIC "-//W3C//DTD SVG 1.1//EN" "http://www.w3.org/Graphics/SVG/1.1/DTD/svg11.dtd">
<svg version="1.1" id="Layer_1" xmlns="http://www.w3.org/2000/svg" xmlns:xlink="http://www.w3.org/1999/xlink" x="0px" y="0px"
	 width="613px" height="549.68px" viewBox="0 0 613 549.68" enable-background="new 0 0 613 549.68" xml:space="preserve">
<path fill-rule="evenodd" clip-rule="evenodd" fill="#00A651" stroke="#006336" stroke-width="0.5669" stroke-miterlimit="22.9256" d="
	M352.616,43.907C278.614,79.82,120.958,148.214,158.072,209.98c37.115,61.766,234.062,9.129,252.232,18.782
	c40.872,16.182-116.415,104.047-205.723,153.737c4.045,4.023,6.931,6.893,10.976,10.917
	c96.753-47.213,194.554-96.342,234.929-145.184c40.375-48.842,24.915-83.199-5.801-81.495
	c-81.379,4.516-181.502,24.922-196.257,4.909C232.569,150.136,316.2,93.31,439.059,48.661C390.617,38.304,351.385,25.355,309.902,0
	c-81.151,42.647-114.368,48.982-202.026,59.821c-2.475,186.623,52.142,270.383,84.816,309.284
	c62.19-30.259,91.74-48.511,148.908-91.559c-57.095,28.796-79.668,43.237-147.748,57.418
	c-39.964-50.96-64.844-171.273-64.774-257.213c73.312-9.89,122.263-28.978,180.824-55.701
	C322.775,30.414,336.378,37.096,352.616,43.907z"/>
<path fill-rule="evenodd" clip-rule="evenodd" fill="#CB3727" stroke="#ED1C24" stroke-width="0.5669" stroke-miterlimit="22.9256" d="
	M315.988,125.503c54.106-31.071,86.244-46.222,143.489-73.248c18.748,3.751,27.017,4.325,51.229,7.437
	C500.4,189.033,504.166,365.15,310.707,457.59c-35.265-17.268-55.151-29.055-82.256-52.588
	c72.112-41.664,135.317-67.819,199.209-128.35c-31.698,42.815-78.775,80.411-167.592,128.446
	c16.611,10.484,28.827,18.194,49.833,31.452c130.704-56.154,189.852-204.178,184.977-362.641
	C464.121,65.269,375.926,104.84,315.988,125.503z"/>
<g>
	<path fill="#14781E" d="M34.087,513.254c0,2.424-0.452,4.551-1.354,6.38c-0.903,1.83-2.127,3.357-3.671,4.58
		c-1.545,1.225-3.351,2.145-5.418,2.763s-4.277,0.927-6.63,0.927c-1.592,0-3.072-0.131-4.438-0.392
		c-1.367-0.262-2.572-0.576-3.618-0.945c-1.046-0.368-1.919-0.754-2.62-1.158c-0.702-0.404-1.207-0.76-1.515-1.069
		c-0.309-0.309-0.529-0.754-0.66-1.337c-0.131-0.582-0.196-1.419-0.196-2.513c0-0.736,0.023-1.354,0.071-1.854
		c0.047-0.499,0.125-0.903,0.232-1.212c0.106-0.309,0.249-0.528,0.428-0.659c0.178-0.13,0.386-0.196,0.624-0.196
		c0.333,0,0.802,0.196,1.408,0.588c0.606,0.393,1.384,0.826,2.335,1.301c0.95,0.476,2.085,0.909,3.404,1.301
		c1.318,0.392,2.845,0.588,4.58,0.588c1.141,0,2.162-0.136,3.065-0.41c0.903-0.272,1.669-0.659,2.299-1.158
		c0.629-0.499,1.111-1.117,1.444-1.854c0.333-0.736,0.499-1.556,0.499-2.459c0-1.045-0.285-1.943-0.855-2.691
		c-0.57-0.749-1.313-1.414-2.228-1.996c-0.915-0.582-1.955-1.128-3.119-1.64c-1.165-0.511-2.365-1.052-3.6-1.622
		c-1.236-0.57-2.436-1.217-3.6-1.942c-1.165-0.725-2.205-1.592-3.119-2.603c-0.916-1.009-1.658-2.204-2.228-3.582
		c-0.57-1.378-0.855-3.03-0.855-4.955c0-2.21,0.41-4.153,1.23-5.828c0.819-1.676,1.925-3.065,3.314-4.171
		c1.391-1.104,3.03-1.93,4.919-2.477c1.89-0.546,3.891-0.82,6.006-0.82c1.093,0,2.186,0.083,3.279,0.25
		c1.093,0.167,2.115,0.392,3.065,0.677c0.95,0.285,1.794,0.606,2.531,0.962c0.736,0.356,1.224,0.654,1.461,0.891
		c0.237,0.238,0.397,0.44,0.481,0.606c0.083,0.167,0.154,0.387,0.214,0.66c0.059,0.273,0.101,0.618,0.125,1.033
		c0.023,0.417,0.036,0.933,0.036,1.551c0,0.689-0.018,1.271-0.053,1.747c-0.036,0.476-0.096,0.868-0.179,1.176
		c-0.083,0.309-0.202,0.535-0.356,0.677c-0.155,0.143-0.362,0.214-0.624,0.214c-0.262,0-0.677-0.166-1.248-0.499
		c-0.57-0.333-1.271-0.695-2.103-1.087c-0.832-0.392-1.794-0.748-2.887-1.069c-1.093-0.32-2.293-0.481-3.6-0.481
		c-1.022,0-1.913,0.125-2.673,0.375c-0.761,0.249-1.396,0.594-1.907,1.033c-0.511,0.44-0.891,0.969-1.141,1.586
		c-0.249,0.618-0.374,1.271-0.374,1.96c0,1.022,0.279,1.907,0.838,2.655c0.558,0.749,1.306,1.415,2.245,1.996
		c0.938,0.583,2.002,1.129,3.19,1.64c1.188,0.512,2.4,1.052,3.636,1.622c1.235,0.57,2.447,1.218,3.636,1.942
		c1.188,0.726,2.246,1.593,3.172,2.603c0.927,1.01,1.675,2.198,2.246,3.564C33.802,509.791,34.087,511.4,34.087,513.254z"/>
	<path fill="#14781E" d="M70.872,525.872c0,0.238-0.06,0.446-0.178,0.624c-0.119,0.179-0.327,0.327-0.624,0.446
		c-0.298,0.119-0.69,0.208-1.177,0.267c-0.487,0.059-1.099,0.089-1.835,0.089c-0.784,0-1.42-0.03-1.907-0.089
		c-0.488-0.06-0.874-0.148-1.159-0.267c-0.285-0.119-0.487-0.267-0.606-0.446c-0.119-0.178-0.178-0.386-0.178-0.624V522.2
		c-1.759,1.901-3.546,3.327-5.365,4.277c-1.817,0.95-3.701,1.426-5.649,1.426c-2.187,0-4.022-0.356-5.507-1.069
		c-1.486-0.713-2.686-1.687-3.601-2.923c-0.915-1.235-1.568-2.667-1.96-4.295c-0.393-1.627-0.588-3.654-0.588-6.078v-19.462
		c0-0.237,0.065-0.446,0.196-0.624c0.13-0.179,0.368-0.327,0.713-0.446c0.344-0.119,0.808-0.208,1.391-0.267
		c0.582-0.059,1.301-0.089,2.156-0.089c0.879,0,1.604,0.03,2.174,0.089c0.57,0.06,1.027,0.148,1.373,0.267
		c0.344,0.119,0.588,0.267,0.73,0.446c0.143,0.178,0.214,0.386,0.214,0.624v17.965c0,1.664,0.107,2.935,0.321,3.814
		c0.214,0.879,0.54,1.634,0.98,2.264c0.439,0.63,0.998,1.117,1.676,1.461c0.677,0.345,1.467,0.517,2.37,0.517
		c1.141,0,2.287-0.416,3.439-1.248c1.152-0.832,2.382-2.043,3.689-3.636v-21.137c0-0.237,0.065-0.446,0.196-0.624
		c0.13-0.179,0.368-0.327,0.713-0.446c0.344-0.119,0.802-0.208,1.372-0.267c0.57-0.059,1.295-0.089,2.174-0.089
		c0.879,0,1.604,0.03,2.174,0.089c0.57,0.06,1.021,0.148,1.354,0.267c0.333,0.119,0.57,0.267,0.713,0.446
		c0.143,0.178,0.214,0.386,0.214,0.624V525.872z"/>
	<path fill="#14781E" d="M111.899,509.511c0,2.828-0.303,5.377-0.909,7.646c-0.606,2.27-1.492,4.201-2.656,5.792
		c-1.165,1.592-2.614,2.816-4.349,3.671c-1.735,0.855-3.719,1.283-5.953,1.283c-0.927,0-1.777-0.089-2.549-0.268
		c-0.772-0.178-1.521-0.452-2.245-0.819c-0.726-0.368-1.444-0.826-2.157-1.373c-0.713-0.546-1.45-1.188-2.21-1.925v14.971
		c0,0.237-0.071,0.451-0.214,0.642c-0.143,0.19-0.387,0.35-0.731,0.481c-0.345,0.13-0.802,0.232-1.372,0.303
		s-1.295,0.107-2.174,0.107c-0.879,0-1.604-0.036-2.174-0.107s-1.028-0.173-1.372-0.303c-0.345-0.131-0.588-0.291-0.731-0.481
		c-0.143-0.19-0.214-0.404-0.214-0.642v-44.413c0-0.237,0.059-0.446,0.178-0.624c0.119-0.179,0.326-0.327,0.624-0.446
		c0.296-0.119,0.688-0.208,1.176-0.267c0.487-0.059,1.099-0.089,1.836-0.089c0.713,0,1.313,0.03,1.8,0.089
		c0.487,0.06,0.879,0.148,1.177,0.267c0.296,0.119,0.504,0.267,0.624,0.446c0.119,0.178,0.178,0.386,0.178,0.624v3.743
		c0.927-0.95,1.836-1.788,2.727-2.513c0.892-0.725,1.8-1.331,2.727-1.818c0.927-0.486,1.883-0.849,2.87-1.087
		c0.985-0.237,2.037-0.356,3.154-0.356c2.329,0,4.313,0.458,5.953,1.372c1.64,0.916,2.976,2.169,4.01,3.761
		c1.033,1.592,1.788,3.446,2.263,5.561C111.661,504.854,111.899,507.111,111.899,509.511z M102.56,510.152
		c0-1.354-0.102-2.655-0.303-3.903c-0.202-1.247-0.547-2.358-1.033-3.333c-0.488-0.974-1.129-1.752-1.925-2.334
		c-0.797-0.582-1.789-0.874-2.977-0.874c-0.594,0-1.183,0.089-1.765,0.267c-0.583,0.179-1.176,0.47-1.782,0.874
		c-0.605,0.404-1.229,0.927-1.871,1.568s-1.319,1.438-2.032,2.388v10.48c1.259,1.592,2.459,2.822,3.6,3.689
		c1.141,0.868,2.329,1.301,3.564,1.301c1.164,0,2.156-0.297,2.977-0.891c0.819-0.594,1.491-1.373,2.014-2.334
		c0.522-0.963,0.909-2.05,1.158-3.262C102.436,512.576,102.56,511.364,102.56,510.152z"/>
	<path fill="#14781E" d="M148.435,509.048c0,1.093-0.244,1.901-0.73,2.424c-0.488,0.523-1.159,0.784-2.014,0.784h-19.355
		c0,1.354,0.16,2.584,0.481,3.689c0.32,1.105,0.831,2.044,1.532,2.816c0.701,0.772,1.604,1.36,2.709,1.764
		c1.105,0.404,2.43,0.606,3.975,0.606c1.568,0,2.946-0.112,4.135-0.339c1.188-0.225,2.215-0.475,3.083-0.748
		c0.867-0.273,1.586-0.522,2.157-0.749c0.57-0.225,1.034-0.338,1.39-0.338c0.214,0,0.392,0.042,0.535,0.125
		c0.143,0.084,0.261,0.232,0.356,0.446c0.095,0.214,0.161,0.517,0.196,0.909c0.036,0.393,0.054,0.886,0.054,1.479
		c0,0.523-0.012,0.969-0.036,1.337c-0.024,0.369-0.06,0.683-0.107,0.944c-0.048,0.262-0.119,0.481-0.214,0.659
		c-0.095,0.179-0.22,0.351-0.374,0.517c-0.155,0.167-0.577,0.392-1.266,0.677c-0.689,0.285-1.568,0.565-2.638,0.838
		c-1.069,0.272-2.293,0.51-3.671,0.713c-1.378,0.201-2.852,0.303-4.42,0.303c-2.828,0-5.306-0.356-7.432-1.069
		c-2.127-0.713-3.903-1.794-5.329-3.244c-1.426-1.449-2.49-3.279-3.19-5.489c-0.702-2.21-1.052-4.8-1.052-7.771
		c0-2.828,0.368-5.376,1.105-7.646c0.736-2.269,1.806-4.193,3.208-5.774c1.402-1.58,3.106-2.786,5.115-3.618
		c2.008-0.832,4.271-1.248,6.791-1.248c2.661,0,4.937,0.392,6.826,1.176c1.89,0.784,3.44,1.872,4.652,3.261
		c1.212,1.391,2.103,3.036,2.673,4.937c0.57,1.901,0.855,3.969,0.855,6.202V509.048z M139.737,506.481
		c0.071-2.519-0.434-4.497-1.515-5.935c-1.082-1.437-2.751-2.156-5.008-2.156c-1.141,0-2.133,0.214-2.976,0.642
		c-0.844,0.428-1.545,1.004-2.104,1.729c-0.559,0.726-0.986,1.581-1.283,2.566c-0.297,0.987-0.469,2.038-0.517,3.155H139.737z"/>
	<path fill="#14781E" d="M176.237,497.035c0,0.855-0.024,1.557-0.071,2.103c-0.048,0.547-0.119,0.975-0.214,1.283
		c-0.095,0.309-0.22,0.523-0.374,0.642c-0.155,0.119-0.351,0.178-0.588,0.178c-0.19,0-0.404-0.041-0.642-0.125
		c-0.238-0.083-0.505-0.172-0.802-0.267c-0.297-0.095-0.624-0.184-0.98-0.267c-0.356-0.083-0.749-0.125-1.176-0.125
		c-0.499,0-0.998,0.102-1.497,0.303c-0.499,0.203-1.016,0.517-1.551,0.945c-0.534,0.428-1.093,0.998-1.675,1.711
		c-0.583,0.713-1.207,1.592-1.872,2.638v19.818c0,0.238-0.071,0.446-0.214,0.624c-0.143,0.179-0.387,0.327-0.731,0.446
		c-0.345,0.119-0.802,0.208-1.372,0.267c-0.57,0.059-1.295,0.089-2.174,0.089c-0.879,0-1.604-0.03-2.174-0.089
		c-0.57-0.06-1.028-0.148-1.372-0.267c-0.345-0.119-0.588-0.267-0.731-0.446c-0.143-0.178-0.214-0.386-0.214-0.624v-31.795
		c0-0.237,0.059-0.446,0.178-0.624c0.119-0.179,0.333-0.327,0.642-0.446c0.309-0.119,0.707-0.208,1.194-0.267
		c0.486-0.059,1.099-0.089,1.835-0.089c0.76,0,1.39,0.03,1.889,0.089c0.499,0.06,0.885,0.148,1.158,0.267
		c0.273,0.119,0.469,0.267,0.588,0.446c0.119,0.178,0.178,0.386,0.178,0.624v3.957c0.832-1.188,1.616-2.168,2.353-2.94
		c0.736-0.772,1.438-1.384,2.103-1.836c0.665-0.451,1.331-0.767,1.996-0.944c0.665-0.179,1.331-0.268,1.996-0.268
		c0.309,0,0.642,0.018,0.998,0.054c0.356,0.035,0.725,0.095,1.105,0.178c0.38,0.084,0.713,0.179,0.998,0.285
		c0.285,0.107,0.493,0.22,0.624,0.339c0.13,0.119,0.225,0.25,0.285,0.392c0.059,0.143,0.112,0.338,0.16,0.588
		c0.047,0.249,0.083,0.624,0.107,1.123C176.225,495.503,176.237,496.18,176.237,497.035z"/>
	<path fill="#14781E" d="M214.021,509.154c0,1.378-0.131,2.341-0.392,2.887c-0.262,0.547-0.677,0.82-1.248,0.82h-14.828
		c-0.594,0-1.022-0.279-1.283-0.838c-0.262-0.558-0.392-1.515-0.392-2.869c0-1.331,0.13-2.269,0.392-2.816
		c0.261-0.546,0.689-0.82,1.283-0.82h14.828c0.285,0,0.528,0.06,0.73,0.178c0.202,0.119,0.375,0.321,0.517,0.606
		s0.243,0.666,0.303,1.141C213.99,507.919,214.021,508.489,214.021,509.154z"/>
	<path fill="#14781E" d="M264.992,513.254c0,2.424-0.452,4.551-1.354,6.38c-0.903,1.83-2.127,3.357-3.671,4.58
		c-1.545,1.225-3.351,2.145-5.418,2.763s-4.277,0.927-6.63,0.927c-1.592,0-3.072-0.131-4.438-0.392
		c-1.367-0.262-2.572-0.576-3.618-0.945c-1.046-0.368-1.919-0.754-2.62-1.158c-0.702-0.404-1.207-0.76-1.515-1.069
		c-0.309-0.309-0.529-0.754-0.66-1.337c-0.131-0.582-0.196-1.419-0.196-2.513c0-0.736,0.023-1.354,0.071-1.854
		c0.047-0.499,0.125-0.903,0.232-1.212c0.106-0.309,0.249-0.528,0.428-0.659c0.178-0.13,0.386-0.196,0.624-0.196
		c0.333,0,0.802,0.196,1.408,0.588c0.606,0.393,1.384,0.826,2.335,1.301c0.95,0.476,2.085,0.909,3.404,1.301
		c1.318,0.392,2.845,0.588,4.58,0.588c1.141,0,2.162-0.136,3.065-0.41c0.903-0.272,1.669-0.659,2.299-1.158
		c0.629-0.499,1.111-1.117,1.444-1.854c0.333-0.736,0.499-1.556,0.499-2.459c0-1.045-0.285-1.943-0.855-2.691
		c-0.57-0.749-1.313-1.414-2.228-1.996c-0.915-0.582-1.955-1.128-3.119-1.64c-1.165-0.511-2.365-1.052-3.6-1.622
		c-1.236-0.57-2.436-1.217-3.6-1.942c-1.165-0.725-2.205-1.592-3.119-2.603c-0.916-1.009-1.658-2.204-2.228-3.582
		c-0.57-1.378-0.855-3.03-0.855-4.955c0-2.21,0.41-4.153,1.23-5.828c0.819-1.676,1.925-3.065,3.314-4.171
		c1.391-1.104,3.03-1.93,4.919-2.477c1.89-0.546,3.891-0.82,6.006-0.82c1.093,0,2.186,0.083,3.279,0.25
		c1.093,0.167,2.115,0.392,3.065,0.677c0.95,0.285,1.794,0.606,2.531,0.962c0.736,0.356,1.224,0.654,1.461,0.891
		c0.237,0.238,0.397,0.44,0.481,0.606c0.083,0.167,0.154,0.387,0.214,0.66c0.059,0.273,0.101,0.618,0.125,1.033
		c0.023,0.417,0.036,0.933,0.036,1.551c0,0.689-0.018,1.271-0.053,1.747c-0.036,0.476-0.096,0.868-0.179,1.176
		c-0.083,0.309-0.202,0.535-0.356,0.677c-0.155,0.143-0.362,0.214-0.624,0.214c-0.262,0-0.677-0.166-1.248-0.499
		c-0.57-0.333-1.271-0.695-2.103-1.087c-0.832-0.392-1.794-0.748-2.887-1.069c-1.093-0.32-2.293-0.481-3.6-0.481
		c-1.022,0-1.913,0.125-2.673,0.375c-0.761,0.249-1.396,0.594-1.907,1.033c-0.511,0.44-0.891,0.969-1.141,1.586
		c-0.249,0.618-0.374,1.271-0.374,1.96c0,1.022,0.279,1.907,0.838,2.655c0.558,0.749,1.306,1.415,2.245,1.996
		c0.938,0.583,2.002,1.129,3.19,1.64c1.188,0.512,2.4,1.052,3.636,1.622c1.235,0.57,2.447,1.218,3.636,1.942
		c1.188,0.726,2.246,1.593,3.172,2.603c0.927,1.01,1.675,2.198,2.246,3.564C264.707,509.791,264.992,511.4,264.992,513.254z"/>
	<path fill="#14781E" d="M281.282,483.312c0,1.806-0.369,3.054-1.105,3.743c-0.737,0.689-2.103,1.034-4.099,1.034
		c-2.02,0-3.381-0.333-4.082-0.998c-0.701-0.665-1.051-1.865-1.051-3.6c0-1.806,0.362-3.059,1.087-3.761
		c0.724-0.7,2.097-1.051,4.117-1.051c1.996,0,3.351,0.338,4.063,1.016C280.925,480.371,281.282,481.578,281.282,483.312z
		 M280.604,525.872c0,0.238-0.071,0.446-0.214,0.624c-0.143,0.179-0.387,0.327-0.73,0.446c-0.345,0.119-0.802,0.208-1.373,0.267
		c-0.57,0.059-1.295,0.089-2.174,0.089c-0.879,0-1.604-0.03-2.174-0.089c-0.57-0.06-1.028-0.148-1.373-0.267
		c-0.345-0.119-0.588-0.267-0.73-0.446c-0.143-0.178-0.214-0.386-0.214-0.624v-31.724c0-0.237,0.071-0.446,0.214-0.624
		c0.143-0.179,0.386-0.333,0.73-0.464c0.344-0.13,0.802-0.231,1.373-0.303s1.295-0.107,2.174-0.107c0.879,0,1.604,0.036,2.174,0.107
		s1.027,0.173,1.373,0.303c0.344,0.131,0.588,0.285,0.73,0.464c0.143,0.178,0.214,0.386,0.214,0.624V525.872z"/>
	<path fill="#14781E" d="M318.922,509.048c0,1.093-0.244,1.901-0.731,2.424c-0.487,0.523-1.158,0.784-2.014,0.784h-19.355
		c0,1.354,0.161,2.584,0.481,3.689c0.321,1.105,0.832,2.044,1.533,2.816c0.7,0.772,1.604,1.36,2.709,1.764
		c1.104,0.404,2.429,0.606,3.974,0.606c1.568,0,2.946-0.112,4.135-0.339c1.188-0.225,2.215-0.475,3.083-0.748
		c0.867-0.273,1.586-0.522,2.156-0.749c0.57-0.225,1.034-0.338,1.39-0.338c0.214,0,0.392,0.042,0.535,0.125
		c0.143,0.084,0.261,0.232,0.356,0.446c0.095,0.214,0.16,0.517,0.196,0.909c0.035,0.393,0.053,0.886,0.053,1.479
		c0,0.523-0.012,0.969-0.036,1.337c-0.024,0.369-0.06,0.683-0.107,0.944c-0.048,0.262-0.119,0.481-0.214,0.659
		c-0.095,0.179-0.22,0.351-0.375,0.517c-0.155,0.167-0.576,0.392-1.265,0.677c-0.689,0.285-1.568,0.565-2.638,0.838
		c-1.069,0.272-2.293,0.51-3.671,0.713c-1.378,0.201-2.852,0.303-4.42,0.303c-2.828,0-5.306-0.356-7.432-1.069
		c-2.127-0.713-3.903-1.794-5.329-3.244c-1.426-1.449-2.49-3.279-3.19-5.489c-0.701-2.21-1.051-4.8-1.051-7.771
		c0-2.828,0.368-5.376,1.105-7.646c0.736-2.269,1.806-4.193,3.208-5.774c1.402-1.58,3.106-2.786,5.115-3.618
		c2.007-0.832,4.271-1.248,6.79-1.248c2.661,0,4.937,0.392,6.826,1.176c1.889,0.784,3.439,1.872,4.651,3.261
		c1.212,1.391,2.103,3.036,2.673,4.937c0.57,1.901,0.855,3.969,0.855,6.202V509.048z M299.924,487.233
		c-0.167,0.262-0.333,0.476-0.499,0.642c-0.167,0.167-0.392,0.292-0.677,0.375c-0.285,0.083-0.648,0.143-1.087,0.178
		c-0.44,0.036-1.016,0.054-1.729,0.054c-0.951,0-1.682-0.041-2.192-0.125c-0.511-0.083-0.85-0.214-1.016-0.392
		c-0.167-0.179-0.185-0.422-0.054-0.731c0.13-0.309,0.362-0.677,0.695-1.105l5.632-7.949c0.143-0.237,0.326-0.421,0.553-0.552
		c0.225-0.13,0.522-0.244,0.891-0.339c0.368-0.095,0.814-0.16,1.337-0.196c0.522-0.035,1.152-0.053,1.889-0.053
		c0.76,0,1.396,0.024,1.907,0.071c0.511,0.048,0.938,0.119,1.283,0.214c0.344,0.095,0.624,0.214,0.838,0.356s0.404,0.309,0.57,0.499
		l5.596,7.949c0.333,0.452,0.558,0.826,0.677,1.123c0.119,0.297,0.095,0.534-0.071,0.713c-0.167,0.178-0.505,0.309-1.016,0.392
		c-0.512,0.084-1.23,0.125-2.157,0.125c-0.761,0-1.361-0.018-1.8-0.054c-0.44-0.035-0.796-0.101-1.069-0.196
		c-0.273-0.095-0.481-0.219-0.624-0.375c-0.143-0.154-0.297-0.362-0.463-0.624l-3.707-5.347L299.924,487.233z M310.225,506.481
		c0.071-2.519-0.434-4.497-1.515-5.935c-1.082-1.437-2.75-2.156-5.008-2.156c-1.141,0-2.133,0.214-2.977,0.642
		c-0.844,0.428-1.545,1.004-2.103,1.729c-0.559,0.726-0.987,1.581-1.283,2.566c-0.298,0.987-0.47,2.038-0.517,3.155H310.225z"/>
	<path fill="#14781E" d="M356.456,525.872c0,0.238-0.06,0.446-0.178,0.624c-0.119,0.179-0.327,0.327-0.624,0.446
		c-0.298,0.119-0.69,0.208-1.177,0.267c-0.487,0.059-1.099,0.089-1.835,0.089c-0.784,0-1.42-0.03-1.907-0.089
		c-0.488-0.06-0.874-0.148-1.159-0.267c-0.285-0.119-0.487-0.267-0.606-0.446c-0.119-0.178-0.178-0.386-0.178-0.624V522.2
		c-1.759,1.901-3.546,3.327-5.365,4.277c-1.817,0.95-3.701,1.426-5.649,1.426c-2.187,0-4.022-0.356-5.507-1.069
		c-1.486-0.713-2.686-1.687-3.601-2.923c-0.915-1.235-1.568-2.667-1.96-4.295c-0.393-1.627-0.588-3.654-0.588-6.078v-19.462
		c0-0.237,0.065-0.446,0.196-0.624c0.13-0.179,0.368-0.327,0.713-0.446c0.344-0.119,0.808-0.208,1.391-0.267
		c0.582-0.059,1.301-0.089,2.156-0.089c0.879,0,1.604,0.03,2.174,0.089c0.57,0.06,1.027,0.148,1.373,0.267
		c0.344,0.119,0.588,0.267,0.73,0.446c0.143,0.178,0.214,0.386,0.214,0.624v17.965c0,1.664,0.107,2.935,0.321,3.814
		c0.214,0.879,0.54,1.634,0.98,2.264c0.439,0.63,0.998,1.117,1.676,1.461c0.677,0.345,1.467,0.517,2.37,0.517
		c1.141,0,2.287-0.416,3.439-1.248c1.152-0.832,2.382-2.043,3.689-3.636v-21.137c0-0.237,0.065-0.446,0.196-0.624
		c0.13-0.179,0.368-0.327,0.713-0.446c0.344-0.119,0.802-0.208,1.372-0.267c0.57-0.059,1.295-0.089,2.174-0.089
		c0.879,0,1.604,0.03,2.174,0.089c0.57,0.06,1.021,0.148,1.354,0.267c0.333,0.119,0.57,0.267,0.713,0.446
		c0.143,0.178,0.214,0.386,0.214,0.624V525.872z"/>
	<path fill="#14781E" d="M400.798,522.735c0,1.046-0.065,1.848-0.196,2.406c-0.131,0.559-0.303,0.951-0.517,1.177
		c-0.214,0.226-0.529,0.428-0.944,0.605c-0.416,0.179-0.903,0.333-1.462,0.464c-0.559,0.13-1.164,0.231-1.817,0.303
		c-0.654,0.071-1.313,0.107-1.979,0.107c-1.782,0-3.327-0.226-4.634-0.677c-1.308-0.451-2.388-1.146-3.243-2.085
		c-0.855-0.938-1.486-2.121-1.89-3.547c-0.404-1.426-0.606-3.113-0.606-5.062v-16.29h-3.813c-0.452,0-0.797-0.279-1.034-0.837
		c-0.237-0.558-0.355-1.491-0.355-2.798c0-0.689,0.029-1.271,0.089-1.747c0.059-0.475,0.147-0.849,0.267-1.123
		c0.119-0.272,0.268-0.469,0.446-0.588c0.178-0.119,0.386-0.178,0.624-0.178h3.777v-7.093c0-0.237,0.065-0.451,0.196-0.642
		c0.131-0.19,0.368-0.35,0.713-0.481c0.345-0.13,0.808-0.225,1.391-0.285c0.582-0.059,1.301-0.089,2.156-0.089
		c0.879,0,1.609,0.03,2.192,0.089c0.582,0.06,1.039,0.155,1.372,0.285c0.332,0.131,0.57,0.292,0.713,0.481
		c0.143,0.19,0.214,0.404,0.214,0.642v7.093h6.915c0.237,0,0.445,0.06,0.624,0.178c0.178,0.119,0.326,0.315,0.445,0.588
		c0.118,0.274,0.208,0.648,0.268,1.123c0.059,0.476,0.089,1.058,0.089,1.747c0,1.307-0.119,2.24-0.356,2.798
		c-0.238,0.559-0.583,0.837-1.033,0.837h-6.951v14.935c0,1.735,0.272,3.036,0.82,3.903c0.546,0.868,1.52,1.301,2.922,1.301
		c0.476,0,0.903-0.041,1.283-0.125c0.38-0.083,0.719-0.178,1.017-0.285c0.297-0.106,0.546-0.201,0.748-0.285
		c0.202-0.083,0.386-0.125,0.553-0.125c0.143,0,0.279,0.042,0.41,0.125c0.13,0.084,0.231,0.25,0.303,0.499
		c0.071,0.25,0.137,0.588,0.196,1.016C400.768,521.523,400.798,522.07,400.798,522.735z"/>
	<path fill="#14781E" d="M437.654,525.872c0,0.238-0.071,0.446-0.214,0.624c-0.143,0.179-0.381,0.327-0.713,0.446
		c-0.333,0.119-0.79,0.208-1.372,0.267c-0.583,0.059-1.301,0.089-2.156,0.089c-0.88,0-1.61-0.03-2.192-0.089
		c-0.583-0.06-1.04-0.148-1.372-0.267c-0.334-0.119-0.57-0.267-0.713-0.446c-0.143-0.178-0.215-0.386-0.215-0.624v-18.143
		c0-1.544-0.112-2.756-0.338-3.636c-0.227-0.879-0.553-1.633-0.98-2.264c-0.428-0.629-0.98-1.116-1.657-1.461
		c-0.678-0.344-1.468-0.517-2.37-0.517c-1.141,0-2.294,0.416-3.458,1.248c-1.165,0.832-2.377,2.044-3.636,3.636v21.137
		c0,0.238-0.071,0.446-0.214,0.624c-0.143,0.179-0.387,0.327-0.73,0.446c-0.345,0.119-0.802,0.208-1.372,0.267
		c-0.57,0.059-1.296,0.089-2.175,0.089c-0.88,0-1.604-0.03-2.175-0.089c-0.57-0.06-1.027-0.148-1.372-0.267
		c-0.345-0.119-0.588-0.267-0.73-0.446c-0.143-0.178-0.214-0.386-0.214-0.624v-46.873c0-0.237,0.071-0.451,0.214-0.642
		c0.143-0.19,0.386-0.35,0.73-0.481c0.345-0.13,0.802-0.231,1.372-0.303s1.295-0.107,2.175-0.107c0.879,0,1.604,0.036,2.175,0.107
		s1.027,0.173,1.372,0.303c0.344,0.131,0.588,0.292,0.73,0.481c0.143,0.19,0.214,0.404,0.214,0.642v17.573
		c1.544-1.521,3.119-2.656,4.723-3.404c1.604-0.749,3.273-1.123,5.008-1.123c2.162,0,3.986,0.356,5.472,1.069
		s2.686,1.688,3.601,2.923c0.914,1.236,1.573,2.68,1.979,4.331c0.403,1.652,0.605,3.653,0.605,6.006V525.872z"/>
	<path fill="#14781E" d="M456.117,483.312c0,1.806-0.368,3.054-1.104,3.743c-0.737,0.689-2.103,1.034-4.099,1.034
		c-2.021,0-3.381-0.333-4.082-0.998c-0.701-0.665-1.051-1.865-1.051-3.6c0-1.806,0.361-3.059,1.087-3.761
		c0.725-0.7,2.097-1.051,4.116-1.051c1.996,0,3.352,0.338,4.064,1.016C455.762,480.371,456.117,481.578,456.117,483.312z
		 M455.904,534.426c0,0.855-0.078,1.574-0.232,2.157c-0.154,0.582-0.422,1.051-0.802,1.408c-0.381,0.356-0.892,0.611-1.532,0.766
		c-0.643,0.154-1.438,0.232-2.389,0.232c-0.951,0-1.741-0.078-2.37-0.232c-0.63-0.155-1.136-0.404-1.515-0.748
		c-0.381-0.345-0.648-0.797-0.803-1.354c-0.154-0.559-0.231-1.242-0.231-2.05c0-0.855,0.083-1.575,0.249-2.156
		c0.166-0.583,0.439-1.052,0.82-1.408c0.38-0.356,0.891-0.612,1.533-0.767c0.641-0.155,1.437-0.231,2.388-0.231
		c0.95,0,1.74,0.077,2.37,0.231c0.63,0.154,1.129,0.404,1.497,0.749c0.368,0.344,0.63,0.795,0.784,1.354
		C455.826,532.935,455.904,533.618,455.904,534.426z M455.44,525.872c0,0.238-0.071,0.446-0.214,0.624
		c-0.143,0.179-0.387,0.327-0.73,0.446c-0.345,0.119-0.803,0.208-1.373,0.267c-0.57,0.059-1.295,0.089-2.174,0.089
		c-0.88,0-1.604-0.03-2.174-0.089c-0.57-0.06-1.028-0.148-1.373-0.267c-0.345-0.119-0.588-0.267-0.73-0.446
		c-0.143-0.178-0.214-0.386-0.214-0.624v-31.724c0-0.237,0.071-0.446,0.214-0.624c0.143-0.179,0.386-0.333,0.73-0.464
		c0.345-0.13,0.803-0.231,1.373-0.303s1.294-0.107,2.174-0.107c0.879,0,1.604,0.036,2.174,0.107s1.028,0.173,1.373,0.303
		c0.344,0.131,0.588,0.285,0.73,0.464c0.143,0.178,0.214,0.386,0.214,0.624V525.872z"/>
	<path fill="#14781E" d="M503.276,516.889c0,1.806-0.339,3.398-1.016,4.776c-0.678,1.378-1.635,2.531-2.87,3.458
		s-2.697,1.622-4.384,2.085c-1.688,0.464-3.518,0.695-5.489,0.695c-1.188,0-2.323-0.089-3.404-0.268
		c-1.081-0.178-2.049-0.404-2.904-0.677c-0.855-0.273-1.568-0.553-2.139-0.838s-0.987-0.553-1.248-0.802
		c-0.262-0.25-0.463-0.642-0.605-1.177c-0.143-0.534-0.215-1.324-0.215-2.37c0-0.689,0.023-1.241,0.072-1.657
		c0.047-0.416,0.118-0.749,0.213-0.998c0.095-0.25,0.215-0.416,0.357-0.499c0.143-0.083,0.32-0.125,0.534-0.125
		c0.261,0,0.647,0.149,1.158,0.445c0.511,0.298,1.146,0.624,1.907,0.98c0.76,0.356,1.646,0.689,2.655,0.998
		c1.01,0.309,2.157,0.463,3.44,0.463c0.807,0,1.526-0.083,2.156-0.25c0.629-0.166,1.176-0.404,1.64-0.713
		c0.463-0.309,0.813-0.701,1.052-1.176c0.236-0.475,0.355-1.021,0.355-1.64c0-0.713-0.22-1.324-0.659-1.835
		c-0.439-0.511-1.021-0.957-1.746-1.337c-0.726-0.38-1.545-0.736-2.46-1.069c-0.915-0.333-1.854-0.701-2.815-1.105
		c-0.963-0.404-1.901-0.867-2.816-1.39c-0.915-0.522-1.734-1.164-2.459-1.925c-0.726-0.76-1.308-1.675-1.747-2.745
		s-0.659-2.353-0.659-3.85c0-1.521,0.297-2.917,0.892-4.188c0.593-1.271,1.448-2.358,2.566-3.262
		c1.116-0.903,2.477-1.604,4.081-2.103c1.604-0.499,3.403-0.749,5.399-0.749c0.998,0,1.967,0.071,2.905,0.214
		s1.788,0.321,2.549,0.535c0.76,0.214,1.401,0.446,1.925,0.695c0.522,0.25,0.896,0.464,1.123,0.642
		c0.226,0.179,0.386,0.356,0.48,0.535c0.095,0.178,0.166,0.392,0.215,0.642c0.047,0.249,0.089,0.559,0.124,0.927
		c0.036,0.369,0.054,0.826,0.054,1.372c0,0.642-0.018,1.165-0.054,1.568c-0.035,0.404-0.095,0.725-0.178,0.962
		c-0.084,0.238-0.196,0.398-0.339,0.481c-0.143,0.084-0.31,0.125-0.499,0.125c-0.214,0-0.547-0.125-0.998-0.374
		c-0.452-0.25-1.016-0.517-1.693-0.802c-0.677-0.285-1.461-0.552-2.353-0.802c-0.891-0.249-1.906-0.374-3.047-0.374
		c-0.809,0-1.51,0.083-2.104,0.25c-0.595,0.167-1.082,0.404-1.461,0.713c-0.381,0.309-0.666,0.672-0.855,1.087
		c-0.191,0.416-0.285,0.861-0.285,1.336c0,0.737,0.225,1.354,0.677,1.854c0.451,0.499,1.045,0.939,1.782,1.319
		c0.736,0.38,1.574,0.737,2.513,1.069c0.938,0.333,1.89,0.695,2.852,1.087c0.963,0.393,1.913,0.85,2.852,1.373
		c0.938,0.523,1.776,1.165,2.513,1.925c0.736,0.761,1.331,1.67,1.783,2.727C503.05,514.187,503.276,515.44,503.276,516.889z"/>
	<path fill="#14781E" d="M537.103,525.979c0,0.333-0.119,0.594-0.356,0.784c-0.238,0.19-0.612,0.326-1.123,0.41
		c-0.511,0.083-1.266,0.125-2.264,0.125c-1.068,0-1.848-0.042-2.334-0.125c-0.487-0.084-0.832-0.22-1.034-0.41
		c-0.202-0.19-0.303-0.451-0.303-0.784v-2.531c-1.308,1.402-2.798,2.495-4.474,3.279c-1.675,0.784-3.535,1.176-5.578,1.176
		c-1.688,0-3.238-0.22-4.651-0.659c-1.414-0.439-2.638-1.093-3.672-1.961c-1.033-0.867-1.835-1.942-2.405-3.226
		s-0.855-2.78-0.855-4.491c0-1.854,0.361-3.463,1.087-4.83c0.725-1.366,1.806-2.495,3.243-3.386
		c1.438-0.892,3.227-1.551,5.365-1.979s4.621-0.642,7.449-0.642h3.102v-1.925c0-0.998-0.102-1.871-0.304-2.62
		c-0.202-0.748-0.534-1.372-0.998-1.871c-0.463-0.499-1.081-0.867-1.854-1.105c-0.772-0.237-1.729-0.356-2.869-0.356
		c-1.497,0-2.834,0.167-4.01,0.499c-1.177,0.333-2.217,0.701-3.119,1.105c-0.903,0.404-1.657,0.772-2.264,1.105
		c-0.605,0.333-1.1,0.499-1.479,0.499c-0.262,0-0.493-0.083-0.694-0.25c-0.202-0.166-0.369-0.404-0.499-0.713
		c-0.131-0.309-0.232-0.689-0.303-1.141c-0.072-0.451-0.107-0.95-0.107-1.497c0-0.736,0.059-1.319,0.178-1.747
		s0.345-0.813,0.678-1.159c0.332-0.344,0.914-0.724,1.746-1.141c0.832-0.415,1.806-0.802,2.924-1.158
		c1.116-0.356,2.334-0.647,3.653-0.873c1.318-0.226,2.679-0.339,4.081-0.339c2.495,0,4.628,0.244,6.398,0.73
		c1.77,0.488,3.226,1.236,4.366,2.246c1.141,1.01,1.972,2.311,2.495,3.903c0.522,1.592,0.784,3.481,0.784,5.667V525.979z
		 M528.299,512.362h-3.422c-1.45,0-2.687,0.107-3.707,0.321c-1.022,0.214-1.854,0.535-2.496,0.962
		c-0.641,0.428-1.11,0.944-1.407,1.551c-0.298,0.605-0.446,1.301-0.446,2.085c0,1.331,0.422,2.376,1.266,3.137
		c0.844,0.761,2.014,1.141,3.512,1.141c1.259,0,2.417-0.321,3.475-0.962s2.133-1.58,3.227-2.816V512.362z M528.512,534.426
		c0,0.855-0.077,1.574-0.231,2.157c-0.154,0.582-0.422,1.051-0.802,1.408c-0.381,0.356-0.891,0.611-1.533,0.766
		c-0.641,0.154-1.438,0.232-2.388,0.232c-0.951,0-1.741-0.078-2.37-0.232c-0.63-0.155-1.136-0.404-1.516-0.748
		c-0.38-0.345-0.647-0.797-0.802-1.354c-0.154-0.559-0.231-1.242-0.231-2.05c0-0.855,0.083-1.575,0.25-2.156
		c0.165-0.583,0.438-1.052,0.819-1.408c0.38-0.356,0.892-0.612,1.532-0.767c0.643-0.155,1.438-0.231,2.389-0.231
		c0.95,0,1.74,0.077,2.37,0.231c0.63,0.154,1.129,0.404,1.497,0.749c0.368,0.344,0.63,0.795,0.784,1.354
		C528.435,532.935,528.512,533.618,528.512,534.426z"/>
	<path fill="#14781E" d="M570.109,520.81c0,0.618-0.018,1.135-0.053,1.55c-0.036,0.417-0.084,0.767-0.143,1.052
		c-0.06,0.285-0.131,0.517-0.214,0.695c-0.084,0.178-0.268,0.404-0.553,0.677c-0.285,0.274-0.772,0.606-1.462,0.998
		c-0.689,0.393-1.474,0.743-2.352,1.052c-0.88,0.309-1.836,0.558-2.87,0.749c-1.033,0.19-2.098,0.285-3.19,0.285
		c-2.447,0-4.615-0.38-6.505-1.141c-1.889-0.76-3.476-1.883-4.759-3.369c-1.283-1.484-2.251-3.297-2.904-5.436
		c-0.654-2.139-0.98-4.586-0.98-7.343c0-3.184,0.397-5.935,1.194-8.252c0.796-2.316,1.907-4.235,3.333-5.756
		c1.426-1.521,3.112-2.649,5.061-3.386c1.948-0.736,4.087-1.105,6.416-1.105c0.95,0,1.884,0.083,2.799,0.25
		c0.914,0.167,1.77,0.392,2.566,0.677c0.796,0.285,1.509,0.606,2.139,0.962c0.629,0.356,1.074,0.666,1.336,0.927
		c0.262,0.262,0.446,0.481,0.553,0.659c0.107,0.179,0.19,0.41,0.25,0.695c0.059,0.285,0.106,0.636,0.143,1.052
		c0.035,0.416,0.053,0.921,0.053,1.515c0,1.378-0.119,2.347-0.355,2.905c-0.238,0.559-0.548,0.837-0.928,0.837
		c-0.404,0-0.832-0.166-1.283-0.499c-0.451-0.333-0.986-0.701-1.604-1.105c-0.618-0.404-1.354-0.772-2.21-1.105
		c-0.855-0.333-1.878-0.499-3.065-0.499c-2.329,0-4.111,0.897-5.347,2.691c-1.236,1.795-1.854,4.426-1.854,7.896
		c0,1.711,0.154,3.22,0.464,4.527c0.308,1.307,0.766,2.4,1.372,3.279c0.605,0.879,1.366,1.539,2.281,1.978
		c0.914,0.44,1.978,0.66,3.19,0.66c1.234,0,2.299-0.184,3.189-0.552c0.892-0.368,1.669-0.778,2.335-1.23
		c0.665-0.451,1.224-0.861,1.675-1.23c0.451-0.368,0.832-0.552,1.141-0.552c0.215,0,0.393,0.06,0.535,0.178
		c0.143,0.119,0.255,0.339,0.339,0.659c0.083,0.321,0.147,0.731,0.196,1.23C570.086,519.384,570.109,520.026,570.109,520.81z"/>
	<path fill="#14781E" d="M606.966,525.872c0,0.238-0.071,0.446-0.214,0.624c-0.143,0.179-0.381,0.327-0.713,0.446
		c-0.333,0.119-0.79,0.208-1.372,0.267c-0.583,0.059-1.302,0.089-2.157,0.089c-0.879,0-1.609-0.03-2.191-0.089
		c-0.583-0.06-1.04-0.148-1.373-0.267c-0.333-0.119-0.57-0.267-0.713-0.446c-0.143-0.178-0.213-0.386-0.213-0.624v-18.143
		c0-1.544-0.113-2.756-0.339-3.636c-0.227-0.879-0.553-1.633-0.98-2.264c-0.428-0.629-0.98-1.116-1.657-1.461
		c-0.678-0.344-1.468-0.517-2.371-0.517c-1.141,0-2.293,0.416-3.457,1.248c-1.165,0.832-2.377,2.044-3.636,3.636v21.137
		c0,0.238-0.071,0.446-0.214,0.624c-0.143,0.179-0.387,0.327-0.73,0.446c-0.345,0.119-0.803,0.208-1.373,0.267
		c-0.57,0.059-1.295,0.089-2.174,0.089c-0.88,0-1.604-0.03-2.174-0.089c-0.57-0.06-1.028-0.148-1.373-0.267
		c-0.345-0.119-0.588-0.267-0.73-0.446c-0.143-0.178-0.214-0.386-0.214-0.624v-46.873c0-0.237,0.071-0.451,0.214-0.642
		c0.143-0.19,0.386-0.35,0.73-0.481c0.345-0.13,0.803-0.231,1.373-0.303s1.294-0.107,2.174-0.107c0.879,0,1.604,0.036,2.174,0.107
		s1.028,0.173,1.373,0.303c0.344,0.131,0.588,0.292,0.73,0.481c0.143,0.19,0.214,0.404,0.214,0.642v17.573
		c1.544-1.521,3.119-2.656,4.723-3.404c1.604-0.749,3.273-1.123,5.009-1.123c2.161,0,3.985,0.356,5.471,1.069
		s2.686,1.688,3.601,2.923c0.914,1.236,1.573,2.68,1.978,4.331c0.404,1.652,0.606,3.653,0.606,6.006V525.872z"/>
</g>
</svg>
