<?xml version="1.0" encoding="utf-8"?>
<!-- Generator: Adobe Illustrator 17.0.0, SVG Export Plug-In . SVG Version: 6.00 Build 0)  -->
<!DOCTYPE svg PUBLIC "-//W3C//DTD SVG 1.1//EN" "http://www.w3.org/Graphics/SVG/1.1/DTD/svg11.dtd">
<svg version="1.1" id="Layer_1" xmlns="http://www.w3.org/2000/svg" xmlns:xlink="http://www.w3.org/1999/xlink" x="0px" y="0px"
	 width="160.476px" height="159.5px" viewBox="0 0 160.476 159.5" enable-background="new 0 0 160.476 159.5" xml:space="preserve">
<path fill-rule="evenodd" clip-rule="evenodd" fill="#00A651" stroke="#006336" stroke-width="0.5669" stroke-miterlimit="22.9256" d="
	M97.51,15.304C68.036,27.823,5.243,51.662,20.025,73.192c14.782,21.53,93.225,3.182,100.461,6.547
	c16.279,5.64-46.367,36.267-81.937,53.587c1.611,1.402,2.76,2.403,4.372,3.805c38.536-16.457,77.489-33.582,93.57-50.606
	c16.081-17.024,9.924-29-2.311-28.406c-32.413,1.574-72.29,8.687-78.167,1.711c-6.316-7.498,26.993-27.305,75.927-42.868
	C112.646,13.351,97.02,8.838,80.497,0C48.176,14.865,34.946,17.073,0.032,20.852c-0.986,65.05,20.768,94.246,33.782,107.806
	c24.77-10.547,36.539-16.909,59.309-31.914c-22.74,10.037-31.731,15.071-58.847,20.014C18.359,98.994,8.449,57.057,8.477,27.101
	c29.199-3.447,48.696-10.101,72.02-19.416C85.625,10.601,91.043,12.93,97.51,15.304z"/>
<path fill-rule="evenodd" clip-rule="evenodd" fill="#F04923" stroke="#ED1C24" stroke-width="0.5669" stroke-miterlimit="22.9256" d="
	M82.922,43.746c21.55-10.83,34.35-16.111,57.15-25.532c7.467,1.307,10.761,1.508,20.404,2.592
	c-4.105,45.084-2.605,106.472-79.658,138.693c-14.046-6.019-21.966-10.128-32.762-18.33c28.722-14.523,53.895-23.64,79.343-44.738
	c-12.625,14.924-31.375,28.029-66.75,44.772c6.616,3.654,11.481,6.342,19.848,10.963c52.058-19.573,75.616-71.169,73.674-126.404
	C141.922,22.751,106.794,36.543,82.922,43.746z"/>
</svg>
