<?xml version="1.0" encoding="utf-8"?>
<!-- Generator: Adobe Illustrator 24.3.0, SVG Export Plug-In . SVG Version: 6.00 Build 0)  -->
<svg version="1.1" id="Layer_1" xmlns="http://www.w3.org/2000/svg" xmlns:xlink="http://www.w3.org/1999/xlink" x="0px" y="0px"
	 viewBox="0 0 613 549.7" style="enable-background:new 0 0 613 549.7;" xml:space="preserve">
<style type="text/css">
	.st0{fill-rule:evenodd;clip-rule:evenodd;fill:#00A651;stroke:#006336;stroke-width:0.5669;stroke-miterlimit:22.9256;}
	.st1{fill-rule:evenodd;clip-rule:evenodd;fill:#CB3727;stroke:#ED1C24;stroke-width:0.5669;stroke-miterlimit:22.9256;}
	.st2{fill:#006600;}
</style>
<path class="st0" d="M361,45.8C274,82.4,88.5,152.2,132.1,215.2c43.7,63,275.4,9.3,296.7,19.2c48.1,16.5-137,106.2-242,156.9
	c4.8,4.1,8.2,7,12.9,11.1c113.8-48.2,228.9-98.3,276.4-148.1s29.3-84.9-6.8-83.2c-95.7,4.6-213.5,25.4-230.9,5
	c-18.7-21.9,79.7-79.9,224.3-125.5C405.7,40.1,359.6,26.9,310.8,1C215.3,44.5,176.2,51,73.1,62c-2.9,190.4,61.3,275.9,99.8,315.6
	c73.2-30.9,107.9-49.5,175.2-93.4c-67.2,29.4-93.7,44.1-173.8,58.6C127.2,290.8,98,168,98,80.3c86.2-10.1,143.8-29.6,212.7-56.8
	C325.9,32,341.9,38.8,361,45.8z"/>
<path class="st1" d="M317.9,129.1c63.7-31.7,101.5-47.2,168.8-74.7c22.1,3.8,31.8,4.4,60.3,7.6c-12.1,132-7.7,311.7-235.3,406
	c-41.5-17.6-64.9-29.6-96.8-53.7c84.8-42.5,159.2-69.2,234.4-131c-37.3,43.7-92.7,82-197.2,131.1c19.5,10.7,33.9,18.6,58.6,32.1
	c153.8-57.3,223.3-208.3,217.6-370C492.2,67.6,388.4,108,317.9,129.1z"/>
<g>
	<path class="st2" d="M61,526.9c-2,0-4-0.3-5.9-1c-1.9-0.6-3.5-1.5-4.8-2.7c-1.4-1.2-2.4-2.5-3-4c-0.3-0.7-0.3-1.3,0-1.9
		c0.3-0.6,0.9-0.9,1.7-1.1c0.6-0.1,1.1,0,1.7,0.3c0.6,0.3,1,0.8,1.3,1.4c0.4,0.8,1,1.5,1.9,2.2c0.9,0.7,1.9,1.2,3.2,1.6
		c1.2,0.4,2.6,0.6,3.9,0.6c1.5,0,3-0.2,4.2-0.7c1.3-0.5,2.3-1.2,3.1-2.1c0.8-0.9,1.2-2,1.2-3.4c0-1.7-0.7-3.2-2-4.6
		c-1.3-1.3-3.5-2.2-6.6-2.5c-4-0.4-7.1-1.6-9.4-3.5c-2.3-2-3.4-4.4-3.4-7.2c0-2.1,0.6-3.9,1.8-5.4c1.2-1.5,2.8-2.6,4.8-3.4
		c2-0.8,4.3-1.2,6.8-1.2c2,0,3.7,0.3,5.1,0.8s2.7,1.3,3.8,2.3c1.1,1,2,2.1,2.8,3.4c0.4,0.7,0.6,1.4,0.6,2c-0.1,0.6-0.4,1.1-0.9,1.5
		c-0.6,0.4-1.3,0.5-2,0.2c-0.7-0.2-1.2-0.6-1.6-1.2c-0.5-0.9-1.1-1.7-1.9-2.4c-0.7-0.6-1.6-1.1-2.6-1.5c-1-0.4-2.2-0.6-3.5-0.6
		c-2.4,0-4.4,0.4-6,1.3s-2.4,2.3-2.4,4.2c0,1,0.2,1.9,0.7,2.8c0.5,0.9,1.4,1.6,2.7,2.3c1.3,0.6,3.2,1.1,5.7,1.3
		c3.8,0.4,6.8,1.5,8.9,3.5c2.1,1.9,3.2,4.5,3.2,7.7c0,1.8-0.4,3.4-1.1,4.8c-0.8,1.3-1.8,2.5-3,3.4c-1.3,0.9-2.7,1.6-4.3,2
		C64.4,526.6,62.8,526.9,61,526.9z"/>
	<path class="st2" d="M92.7,526.6c-2.2,0-4.2-0.5-5.9-1.4c-1.7-0.9-3.1-2.3-4.1-4.2c-1-1.8-1.5-4.1-1.5-6.7v-11.8
		c0-0.7,0.2-1.3,0.7-1.8c0.5-0.5,1-0.7,1.8-0.7c0.7,0,1.3,0.2,1.8,0.7c0.5,0.5,0.7,1,0.7,1.8v11.8c0,1.8,0.3,3.3,1,4.4
		c0.7,1.2,1.6,2,2.7,2.6c1.2,0.6,2.4,0.8,3.9,0.8c1.4,0,2.6-0.3,3.7-0.8c1.1-0.5,1.9-1.3,2.6-2.2c0.6-0.9,1-2,1-3.1h3
		c0,2-0.5,3.8-1.5,5.4c-1,1.6-2.3,2.9-4,3.8C96.8,526.2,94.9,526.6,92.7,526.6z M103.3,526.4c-0.7,0-1.3-0.2-1.8-0.7
		c-0.5-0.5-0.7-1-0.7-1.8v-21.4c0-0.7,0.2-1.3,0.7-1.8s1-0.7,1.8-0.7c0.7,0,1.3,0.2,1.8,0.7c0.4,0.4,0.7,1,0.7,1.8v21.4
		c0,0.7-0.2,1.3-0.7,1.8C104.6,526.1,104.1,526.4,103.3,526.4z"/>
	<path class="st2" d="M116.9,537.6c-0.7,0-1.3-0.2-1.8-0.7c-0.5-0.5-0.7-1-0.7-1.8v-21.9c0-2.5,0.6-4.8,1.8-6.8
		c1.2-2,2.7-3.6,4.7-4.8c2-1.2,4.2-1.8,6.7-1.8c2.5,0,4.8,0.6,6.8,1.8c2,1.2,3.6,2.8,4.7,4.8c1.2,2,1.8,4.3,1.8,6.8
		c0,2.5-0.5,4.8-1.6,6.8c-1.1,2-2.5,3.6-4.4,4.8c-1.9,1.2-4,1.8-6.3,1.8c-1.9,0-3.6-0.4-5.2-1.2c-1.6-0.8-2.9-1.8-4.1-3.2v13
		c0,0.7-0.2,1.3-0.7,1.8C118.2,537.4,117.6,537.6,116.9,537.6z M127.6,522.3c1.6,0,3.1-0.4,4.4-1.2c1.3-0.8,2.3-1.9,3-3.2
		c0.8-1.4,1.1-2.9,1.1-4.6c0-1.7-0.4-3.3-1.1-4.6c-0.8-1.4-1.8-2.4-3-3.2c-1.3-0.8-2.7-1.2-4.4-1.2c-1.6,0-3,0.4-4.3,1.2
		c-1.3,0.8-2.3,1.9-3,3.2c-0.7,1.4-1.1,2.9-1.1,4.6c0,1.7,0.4,3.2,1.1,4.6c0.7,1.4,1.8,2.4,3,3.2C124.6,521.9,126,522.3,127.6,522.3
		z"/>
	<path class="st2" d="M160.5,526.6c-2.7,0-5-0.6-7.1-1.7s-3.7-2.7-4.8-4.7c-1.2-2-1.8-4.3-1.8-6.9c0-2.6,0.6-4.9,1.7-6.9
		c1.1-2,2.6-3.6,4.6-4.7c2-1.1,4.2-1.7,6.7-1.7c2.5,0,4.6,0.6,6.4,1.7c1.8,1.1,3.2,2.6,4.1,4.6c0.9,1.9,1.4,4.2,1.4,6.7
		c0,0.6-0.2,1.1-0.6,1.5c-0.4,0.4-0.9,0.6-1.6,0.6h-19.3v-3.8h19.2l-2,1.3c0-1.6-0.4-3-1-4.3c-0.6-1.3-1.5-2.3-2.6-3
		c-1.1-0.7-2.5-1.1-4.1-1.1c-1.8,0-3.4,0.4-4.7,1.2c-1.3,0.8-2.3,1.9-3,3.3c-0.7,1.4-1,3-1,4.7s0.4,3.3,1.2,4.7
		c0.8,1.4,1.9,2.5,3.3,3.3c1.4,0.8,3,1.2,4.8,1.2c1,0,2-0.2,3-0.6c1-0.4,1.9-0.8,2.5-1.3c0.5-0.4,1-0.5,1.6-0.6c0.6,0,1,0.2,1.5,0.5
		c0.5,0.5,0.8,1,0.9,1.6c0,0.6-0.2,1.1-0.8,1.5c-1.1,0.9-2.4,1.6-4.1,2.1C163.5,526.3,162,526.6,160.5,526.6z"/>
	<path class="st2" d="M180.4,526.4c-0.8,0-1.4-0.2-1.8-0.6c-0.4-0.4-0.6-1-0.6-1.8v-21.5c0-0.8,0.2-1.4,0.6-1.8
		c0.4-0.4,1-0.6,1.8-0.6c0.8,0,1.4,0.2,1.8,0.6c0.4,0.4,0.6,1,0.6,1.8V524c0,0.8-0.2,1.4-0.6,1.8
		C181.8,526.2,181.2,526.4,180.4,526.4z M180.3,510c0-1.9,0.5-3.6,1.4-5.2c0.9-1.5,2.2-2.7,3.8-3.6c1.6-0.9,3.4-1.3,5.3-1.3
		s3.4,0.3,4.3,0.9c0.9,0.6,1.3,1.4,1.1,2.2c-0.1,0.4-0.3,0.8-0.6,1c-0.3,0.2-0.6,0.4-0.9,0.5s-0.7,0-1.2,0c-2-0.4-3.9-0.4-5.5-0.1
		c-1.6,0.4-2.9,1-3.9,2c-0.9,1-1.4,2.2-1.4,3.6H180.3z"/>
	<path class="st2" d="M215.2,515.7c-0.7,0-1.3-0.2-1.8-0.7s-0.7-1-0.7-1.7c0-0.7,0.2-1.3,0.7-1.8s1-0.7,1.8-0.7h10.7
		c0.7,0,1.3,0.2,1.7,0.7c0.4,0.4,0.7,1,0.7,1.8c0,0.7-0.2,1.3-0.7,1.7c-0.4,0.4-1,0.7-1.7,0.7H215.2z"/>
	<path class="st2" d="M260.6,526.9c-2,0-4-0.3-5.9-1c-1.9-0.6-3.5-1.5-4.8-2.7c-1.4-1.2-2.4-2.5-3-4c-0.3-0.7-0.3-1.3,0-1.9
		c0.3-0.6,0.9-0.9,1.7-1.1c0.6-0.1,1.1,0,1.7,0.3c0.6,0.3,1,0.8,1.3,1.4c0.4,0.8,1,1.5,1.9,2.2c0.9,0.7,1.9,1.2,3.2,1.6
		c1.2,0.4,2.6,0.6,3.9,0.6c1.5,0,3-0.2,4.2-0.7c1.3-0.5,2.3-1.2,3.1-2.1c0.8-0.9,1.2-2,1.2-3.4c0-1.7-0.7-3.2-2-4.6
		c-1.3-1.3-3.5-2.2-6.6-2.5c-4-0.4-7.1-1.6-9.4-3.5c-2.3-2-3.4-4.4-3.4-7.2c0-2.1,0.6-3.9,1.8-5.4c1.2-1.5,2.8-2.6,4.8-3.4
		c2-0.8,4.3-1.2,6.8-1.2c2,0,3.7,0.3,5.1,0.8s2.7,1.3,3.8,2.3c1.1,1,2,2.1,2.8,3.4c0.4,0.7,0.6,1.4,0.6,2c-0.1,0.6-0.4,1.1-0.9,1.5
		c-0.6,0.4-1.3,0.5-2,0.2c-0.7-0.2-1.2-0.6-1.6-1.2c-0.5-0.9-1.1-1.7-1.9-2.4c-0.7-0.6-1.6-1.1-2.6-1.5c-1-0.4-2.2-0.6-3.5-0.6
		c-2.4,0-4.4,0.4-6,1.3s-2.4,2.3-2.4,4.2c0,1,0.2,1.9,0.7,2.8c0.5,0.9,1.4,1.6,2.7,2.3c1.3,0.6,3.2,1.1,5.7,1.3
		c3.8,0.4,6.8,1.5,8.9,3.5c2.1,1.9,3.2,4.5,3.2,7.7c0,1.8-0.4,3.4-1.1,4.8c-0.8,1.3-1.8,2.5-3,3.4c-1.3,0.9-2.7,1.6-4.3,2
		C264,526.6,262.3,526.9,260.6,526.9z"/>
	<path class="st2" d="M284.1,495.8c-0.9,0-1.6-0.3-2.2-0.9s-0.9-1.4-0.9-2.2c0-0.9,0.3-1.6,0.9-2.2s1.4-0.9,2.2-0.9
		c0.9,0,1.6,0.3,2.2,0.9s0.9,1.4,0.9,2.2c0,0.9-0.3,1.6-0.9,2.2S285,495.8,284.1,495.8z M284.1,526.4c-0.7,0-1.3-0.2-1.8-0.7
		c-0.5-0.5-0.7-1-0.7-1.8v-21.4c0-0.7,0.2-1.3,0.7-1.8c0.5-0.4,1-0.7,1.8-0.7c0.7,0,1.3,0.2,1.8,0.7c0.4,0.4,0.7,1,0.7,1.8v21.4
		c0,0.7-0.2,1.3-0.7,1.8C285.5,526.1,284.9,526.4,284.1,526.4z"/>
	<path class="st2" d="M308,526.6c-2.7,0-5-0.6-7.1-1.7s-3.7-2.7-4.8-4.7c-1.2-2-1.8-4.3-1.8-6.9c0-2.6,0.6-4.9,1.7-6.9
		c1.1-2,2.6-3.6,4.6-4.7c2-1.1,4.2-1.7,6.7-1.7c2.5,0,4.6,0.6,6.4,1.7c1.8,1.1,3.2,2.6,4.1,4.6c0.9,1.9,1.4,4.2,1.4,6.7
		c0,0.6-0.2,1.1-0.6,1.5c-0.4,0.4-0.9,0.6-1.6,0.6h-19.3v-3.8h19.2l-2,1.3c0-1.6-0.4-3-1-4.3c-0.6-1.3-1.5-2.3-2.6-3
		s-2.5-1.1-4.1-1.1c-1.8,0-3.4,0.4-4.7,1.2c-1.3,0.8-2.3,1.9-3,3.3c-0.7,1.4-1,3-1,4.7s0.4,3.3,1.2,4.7c0.8,1.4,1.9,2.5,3.3,3.3
		c1.4,0.8,3,1.2,4.8,1.2c1,0,2-0.2,3-0.6c1-0.4,1.9-0.8,2.5-1.3c0.5-0.4,1-0.5,1.6-0.6c0.6,0,1,0.2,1.5,0.5c0.5,0.5,0.8,1,0.9,1.6
		c0,0.6-0.2,1.1-0.8,1.5c-1.1,0.9-2.4,1.6-4.1,2.1C311.1,526.3,309.5,526.6,308,526.6z M301.5,496.9c-0.7,0-1.3-0.2-1.8-0.6
		c-0.5-0.4-0.7-0.8-0.7-1.4c0-0.8,0.4-1.5,1.2-2.1l5.4-3.5c0.4-0.3,0.8-0.4,1.2-0.4c0.3,0,0.5,0,0.7,0.1c0.2,0,0.4,0.2,0.6,0.3
		l5.3,3.5c0.8,0.6,1.2,1.3,1.2,2.1c0,0.6-0.2,1-0.7,1.4c-0.4,0.4-1,0.6-1.7,0.6c-0.3,0-0.6,0-0.8-0.1c-0.2-0.1-0.5-0.2-0.7-0.4
		l-3.8-2.7l-3.8,2.7C302.6,496.7,302.1,496.9,301.5,496.9z"/>
	<path class="st2" d="M336.5,526.6c-2.2,0-4.2-0.5-5.9-1.4c-1.7-0.9-3.1-2.3-4.1-4.2c-1-1.8-1.5-4.1-1.5-6.7v-11.8
		c0-0.7,0.2-1.3,0.7-1.8c0.5-0.5,1-0.7,1.8-0.7c0.7,0,1.3,0.2,1.8,0.7c0.5,0.5,0.7,1,0.7,1.8v11.8c0,1.8,0.3,3.3,1,4.4
		c0.7,1.2,1.6,2,2.7,2.6c1.2,0.6,2.4,0.8,3.9,0.8c1.4,0,2.6-0.3,3.7-0.8c1.1-0.5,1.9-1.3,2.6-2.2c0.6-0.9,1-2,1-3.1h3
		c0,2-0.5,3.8-1.5,5.4c-1,1.6-2.3,2.9-4,3.8C340.6,526.2,338.7,526.6,336.5,526.6z M347.2,526.4c-0.7,0-1.3-0.2-1.8-0.7
		c-0.5-0.5-0.7-1-0.7-1.8v-21.4c0-0.7,0.2-1.3,0.7-1.8s1-0.7,1.8-0.7c0.7,0,1.3,0.2,1.8,0.7s0.7,1,0.7,1.8v21.4
		c0,0.7-0.2,1.3-0.7,1.8C348.5,526.1,347.9,526.4,347.2,526.4z"/>
	<path class="st2" d="M371.2,505.2c-0.7,0-1.2-0.2-1.6-0.6s-0.6-0.9-0.6-1.4c0-0.6,0.2-1.2,0.6-1.5s1-0.6,1.6-0.6h11.1
		c0.7,0,1.2,0.2,1.6,0.6c0.4,0.4,0.6,0.9,0.6,1.5c0,0.6-0.2,1.1-0.6,1.4c-0.4,0.4-1,0.6-1.6,0.6H371.2z M381.9,526.4
		c-1.6,0-3-0.4-4.3-1.2c-1.3-0.8-2.3-1.9-3-3.3c-0.7-1.4-1.1-3-1.1-4.8v-22.9c0-0.7,0.2-1.3,0.7-1.7c0.4-0.4,1-0.7,1.7-0.7
		c0.7,0,1.3,0.2,1.7,0.7s0.7,1,0.7,1.7v22.9c0,1.3,0.4,2.4,1.1,3.2c0.7,0.9,1.6,1.3,2.6,1.3h1.6c0.6,0,1.1,0.2,1.5,0.7
		s0.6,1,0.6,1.7c0,0.7-0.3,1.3-0.8,1.7s-1.2,0.7-2,0.7H381.9z"/>
	<path class="st2" d="M394,516.8c-0.7,0-1.3-0.2-1.8-0.7c-0.5-0.5-0.7-1-0.7-1.8v-23c0-0.7,0.2-1.3,0.7-1.8c0.5-0.4,1-0.7,1.8-0.7
		c0.7,0,1.3,0.2,1.8,0.7c0.4,0.4,0.7,1,0.7,1.8v23c0,0.7-0.2,1.3-0.7,1.8S394.7,516.8,394,516.8z M394,526.4c-0.7,0-1.3-0.2-1.8-0.7
		c-0.5-0.5-0.7-1-0.7-1.8v-21.4c0-0.7,0.2-1.3,0.7-1.8c0.5-0.4,1-0.7,1.8-0.7c0.7,0,1.3,0.2,1.8,0.7s0.7,1,0.7,1.8V524
		c0,0.7-0.2,1.3-0.7,1.8C395.3,526.2,394.7,526.4,394,526.4z M413.7,526.4c-0.7,0-1.3-0.2-1.8-0.7c-0.5-0.5-0.7-1-0.7-1.8v-11.8
		c0-1.8-0.3-3.3-1-4.5s-1.6-2-2.7-2.6c-1.1-0.6-2.4-0.8-3.9-0.8c-1.3,0-2.6,0.3-3.6,0.8c-1.1,0.5-2,1.3-2.6,2.2c-0.6,0.9-1,2-1,3.1
		h-3c0-2,0.5-3.8,1.5-5.4c1-1.6,2.3-2.8,4-3.8c1.7-0.9,3.6-1.4,5.7-1.4c2.2,0,4.2,0.5,5.9,1.4c1.7,0.9,3.1,2.3,4.1,4.2
		c1,1.8,1.5,4.1,1.5,6.7V524c0,0.7-0.2,1.3-0.7,1.8C415,526.2,414.4,526.4,413.7,526.4z"/>
	<path class="st2" d="M427.3,495.8c-0.9,0-1.6-0.3-2.2-0.9s-0.9-1.4-0.9-2.2c0-0.9,0.3-1.6,0.9-2.2s1.4-0.9,2.2-0.9s1.6,0.3,2.2,0.9
		s0.9,1.4,0.9,2.2c0,0.9-0.3,1.6-0.9,2.2S428.1,495.8,427.3,495.8z M427.3,537.1c-0.9,0-1.6-0.3-2.2-0.9s-0.9-1.4-0.9-2.2
		s0.3-1.6,0.9-2.2s1.4-0.9,2.2-0.9s1.6,0.3,2.2,0.9s0.9,1.4,0.9,2.2s-0.3,1.6-0.9,2.2S428.1,537.1,427.3,537.1z M427.3,526.4
		c-0.7,0-1.3-0.2-1.8-0.7c-0.5-0.5-0.7-1-0.7-1.8v-21.4c0-0.7,0.2-1.3,0.7-1.8s1-0.7,1.8-0.7c0.7,0,1.3,0.2,1.8,0.7
		c0.4,0.4,0.7,1,0.7,1.8v21.4c0,0.7-0.2,1.3-0.7,1.8C428.6,526.1,428,526.4,427.3,526.4z"/>
	<path class="st2" d="M462.4,526.6c-2.2,0-4.3-0.3-6.2-1c-1.9-0.7-3.4-1.6-4.4-2.6c-0.5-0.5-0.7-1.1-0.6-1.8
		c0.1-0.7,0.4-1.2,0.9-1.6c0.6-0.5,1.3-0.7,1.9-0.6s1.2,0.4,1.6,0.8c0.5,0.6,1.4,1.2,2.6,1.7c1.2,0.5,2.5,0.8,4,0.8
		c1.9,0,3.3-0.3,4.2-0.9c1-0.6,1.5-1.4,1.5-2.4c0-1-0.4-1.8-1.4-2.5c-0.9-0.7-2.7-1.3-5.2-1.7c-3.2-0.6-5.6-1.6-7-2.9
		c-1.5-1.3-2.2-2.8-2.2-4.7c0-1.6,0.5-3,1.4-4.1c1-1.1,2.2-1.9,3.7-2.4c1.5-0.5,3.1-0.8,4.7-0.8c2.1,0,4,0.3,5.6,1
		c1.6,0.7,2.9,1.6,3.9,2.8c0.4,0.5,0.7,1,0.6,1.6c0,0.6-0.3,1-0.8,1.4c-0.5,0.4-1.1,0.5-1.8,0.3c-0.7-0.1-1.3-0.4-1.8-0.9
		c-0.8-0.8-1.7-1.3-2.6-1.6c-0.9-0.3-2-0.4-3.2-0.4c-1.4,0-2.6,0.2-3.6,0.7c-1,0.5-1.5,1.2-1.5,2.1c0,0.6,0.2,1.1,0.5,1.6
		c0.3,0.5,0.9,0.9,1.8,1.2c0.9,0.4,2.2,0.7,3.9,1.1c2.4,0.5,4.3,1.1,5.7,1.8s2.4,1.6,3,2.6c0.6,1,0.9,2.1,0.9,3.4
		c0,1.5-0.4,2.8-1.2,4c-0.8,1.2-1.9,2.1-3.5,2.8C466.6,526.2,464.7,526.6,462.4,526.6z"/>
	<path class="st2" d="M489.9,526.6c-2.3,0-4.4-0.6-6.3-1.8c-1.9-1.2-3.3-2.8-4.4-4.8s-1.6-4.3-1.6-6.8c0-2.5,0.6-4.8,1.8-6.8
		c1.2-2,2.8-3.6,4.8-4.8c2-1.2,4.2-1.8,6.7-1.8s4.7,0.6,6.7,1.8c2,1.2,3.6,2.8,4.7,4.8s1.8,4.3,1.8,6.8h-1.9c0,2.5-0.5,4.8-1.6,6.8
		c-1.1,2-2.5,3.6-4.4,4.8C494.3,526,492.2,526.6,489.9,526.6z M490.9,522.3c1.6,0,3.1-0.4,4.4-1.2s2.3-1.9,3-3.2
		c0.7-1.4,1.1-2.9,1.1-4.6c0-1.7-0.4-3.3-1.1-4.6c-0.7-1.4-1.7-2.4-3-3.2c-1.3-0.8-2.7-1.2-4.4-1.2c-1.6,0-3,0.4-4.3,1.2
		c-1.3,0.8-2.3,1.9-3.1,3.2c-0.8,1.4-1.1,2.9-1.1,4.6c0,1.7,0.4,3.2,1.1,4.6c0.8,1.4,1.8,2.4,3.1,3.2S489.3,522.3,490.9,522.3z
		 M490.9,537.1c-0.9,0-1.6-0.3-2.2-0.9s-0.9-1.4-0.9-2.2s0.3-1.6,0.9-2.2s1.4-0.9,2.2-0.9c0.9,0,1.6,0.3,2.2,0.9s0.9,1.4,0.9,2.2
		s-0.3,1.6-0.9,2.2S491.7,537.1,490.9,537.1z M501.6,526.4c-0.7,0-1.3-0.2-1.8-0.7c-0.5-0.5-0.7-1-0.7-1.8v-7.3l0.9-5.1l4,1.7V524
		c0,0.7-0.2,1.3-0.7,1.8C502.9,526.2,502.3,526.4,501.6,526.4z"/>
	<path class="st2" d="M523.3,526.6c-2.6,0-4.8-0.6-6.8-1.8s-3.6-2.8-4.7-4.8c-1.1-2-1.7-4.3-1.7-6.8c0-2.6,0.6-4.9,1.7-6.9
		c1.1-2,2.7-3.6,4.6-4.7c2-1.1,4.2-1.7,6.7-1.7c1.9,0,3.6,0.4,5.2,1.1c1.6,0.7,3,1.8,4.2,3.2c0.4,0.5,0.6,1,0.5,1.6
		c-0.1,0.5-0.5,1-1.1,1.4c-0.4,0.3-0.9,0.4-1.5,0.3c-0.5-0.1-1-0.4-1.5-0.8c-1.6-1.7-3.5-2.5-5.9-2.5c-1.6,0-3.1,0.4-4.3,1.1
		s-2.2,1.8-2.9,3.1c-0.7,1.3-1.1,2.9-1.1,4.8c0,1.7,0.4,3.3,1.1,4.6c0.7,1.3,1.7,2.4,3,3.2c1.3,0.8,2.8,1.2,4.5,1.2
		c1.1,0,2.1-0.1,3-0.4c0.8-0.3,1.6-0.7,2.3-1.3c0.5-0.4,1-0.6,1.6-0.7s1,0.1,1.4,0.5c0.5,0.4,0.8,1,0.9,1.5c0.1,0.6-0.1,1.1-0.6,1.5
		C529.6,525.5,526.7,526.6,523.3,526.6z"/>
	<path class="st2" d="M542.7,516.8c-0.7,0-1.3-0.2-1.8-0.7s-0.7-1-0.7-1.8v-23c0-0.7,0.2-1.3,0.7-1.8c0.5-0.4,1-0.7,1.8-0.7
		c0.7,0,1.3,0.2,1.8,0.7c0.4,0.4,0.7,1,0.7,1.8v23c0,0.7-0.2,1.3-0.7,1.8C544,516.6,543.4,516.8,542.7,516.8z M542.7,526.4
		c-0.7,0-1.3-0.2-1.8-0.7c-0.5-0.5-0.7-1-0.7-1.8v-21.4c0-0.7,0.2-1.3,0.7-1.8s1-0.7,1.8-0.7c0.7,0,1.3,0.2,1.8,0.7
		c0.4,0.4,0.7,1,0.7,1.8V524c0,0.7-0.2,1.3-0.7,1.8C544,526.2,543.4,526.4,542.7,526.4z M562.4,526.4c-0.7,0-1.3-0.2-1.8-0.7
		c-0.5-0.5-0.7-1-0.7-1.8v-11.8c0-1.8-0.3-3.3-1-4.5s-1.6-2-2.7-2.6c-1.1-0.6-2.4-0.8-3.9-0.8c-1.3,0-2.6,0.3-3.6,0.8
		s-2,1.3-2.6,2.2c-0.6,0.9-1,2-1,3.1h-3c0-2,0.5-3.8,1.5-5.4s2.3-2.8,4-3.8c1.7-0.9,3.6-1.4,5.7-1.4c2.2,0,4.2,0.5,5.9,1.4
		c1.7,0.9,3.1,2.3,4.1,4.2s1.5,4.1,1.5,6.7V524c0,0.7-0.2,1.3-0.7,1.8C563.7,526.2,563.1,526.4,562.4,526.4z"/>
</g>
</svg>
