<svg id="Layer_1" data-name="Layer 1" xmlns="http://www.w3.org/2000/svg" viewBox="0 0 594.3 531.06"><defs><style>.cls-1{fill:#00a651;stroke:#006336;}.cls-1,.cls-2{stroke-miterlimit:22.93;stroke-width:0.57px;}.cls-1,.cls-10,.cls-11,.cls-12,.cls-13,.cls-14,.cls-15,.cls-2,.cls-5,.cls-6,.cls-8,.cls-9{fill-rule:evenodd;}.cls-2{fill:#cb3727;stroke:#ed1c24;}.cls-3{fill:#060;}.cls-4,.cls-6{fill:#38413e;}.cls-5,.cls-7{fill:#656e6b;}.cls-8{fill:#5c5c5c;}.cls-17,.cls-9{fill:#bcb0b7;}.cls-11{fill:#757575;}.cls-12,.cls-16{fill:#fff;}.cls-13{fill:#87807c;}.cls-14{fill:#c9c9c9;}.cls-15,.cls-18{fill:none;}.cls-15{stroke:#141414;}.cls-15,.cls-16{stroke-miterlimit:10;stroke-width:0.36px;}.cls-16{stroke:#000;}</style></defs><path class="cls-1" d="M352.62,43.91C278.61,79.82,121,148.21,158.07,210s234.06,9.13,252.23,18.78c40.88,16.18-116.41,104.05-205.72,153.74l11,10.92c96.75-47.22,194.55-96.35,234.93-145.19s24.91-83.2-5.8-81.49c-81.38,4.51-181.51,24.92-196.26,4.91-15.86-21.51,67.77-78.34,190.63-123C390.62,38.3,351.39,25.35,309.9,0c-81.15,42.65-114.37,49-202,59.82C105.4,246.44,160,330.2,192.69,369.1c62.19-30.25,91.74-48.51,148.91-91.55-57.09,28.79-79.67,43.23-147.75,57.41-40-51-64.84-171.27-64.77-257.21,73.31-9.89,122.26-29,180.82-55.7C322.77,30.41,336.38,37.1,352.62,43.91Z" transform="translate(-1.71 0.33)"/><path class="cls-2" d="M316,125.5c54.1-31.07,86.24-46.22,143.49-73.25,18.74,3.76,27,4.33,51.23,7.44-10.31,129.34-6.54,305.46-200,397.9-35.27-17.27-55.15-29-82.26-52.59,72.11-41.66,135.32-67.82,199.21-128.35C396,319.47,348.89,357.06,260.07,405.1l49.83,31.45c130.7-56.15,189.85-204.18,185-362.64C464.12,65.27,375.93,104.84,316,125.5Z" transform="translate(-1.71 0.33)"/><path class="cls-3" d="M25.49,502c0-4.37,4.2-9.79,12.35-9.79,2.69,0,5.71,1.22,6.34,1.22s1.18-.5,2.06-.5c1.43,0,4.62,3.11,4.62,6.64a2.65,2.65,0,0,1-2.48,2.85c-2.81,0-4.45-4.79-8.82-4.79-1.3,0-2.69.59-2.69,2.1,0,3.32,5.76,2.44,10.63,5.67a7.74,7.74,0,0,1,3.91,7c0,4.91-4,10.46-13.82,10.46-2.77,0-7.52-.72-9.92-2-2-1.13-3-5.59-3-7.73,0-1.13.51-2.27,1.77-2.27,3,0,2.48,6.68,10.2,6.68.93,0,3.24-.46,3.24-2.06,0-3-5.76-2.26-10.42-6A9.65,9.65,0,0,1,25.49,502Z" transform="translate(-1.71 0.33)"/><path class="cls-3" d="M79.76,516c0,3.57,2.06,2.69,2.06,4.33,0,2.43-5.38,2.39-6.93,2.39-1.31,0-6.39,0-6.39-2.14,0-1.22,1.18-1.18,1.51-3.32a23.41,23.41,0,0,0,.3-4.2c0-2.1,0-6.05-3-6.05-2.56,0-2.48,2.18-2.48,4.08v4.87c0,3.48,1.68,2.77,1.68,4.28,0,2.44-4.78,2.48-6.38,2.48-6,0-7.39-1.26-7.39-2.56,0-1.68,1.63-.93,2.35-3.66.5-2,.5-7.52.5-9.83,0-1.89-.12-3.82-.17-5.71-.08-3-2.6-1.93-2.6-3.91,0-3.36,10.92-4.24,11-4.24,1.26,0,1.35.38,1.35,1.6l-.25,8c0,.8-.09,2.14,1,2.14,1.26,0,1.81-3.74,6.52-3.74,7.72,0,7.18,7.27,7.22,8.45Z" transform="translate(-1.71 0.33)"/><path class="cls-3" d="M95,514.44c0,4.95,2.48,3.15,2.48,5.37,0,2.86-5.33,2.86-7.22,2.86-7.23,0-7.52-1.64-7.52-2.65,0-1.51,1.72-1.59,2.22-2.89.55-1.47.63-7.57.17-9.12s-2.52-1-2.52-2.9c0-3,10.67-4.24,11.09-4.24,1.26,0,1.3,1,1.3,1.85Zm-8.31-14.91c-1.77,0-3.66-.8-3.66-2.86,0-2.77,5.55-3.91,7.69-3.91,1.68,0,4.07.55,4.07,2.65C94.83,498.68,89.12,499.53,86.73,499.53Z" transform="translate(-1.71 0.33)"/><path class="cls-3" d="M101.68,513.89c0-4.41-.25-5.38-.46-5.59-.55-.54-2.82,0-2.82-2.39,0-2.86,8.66-5,11.76-5,1,0,1.18.34,1.18,1.26,0,.29,0,.88.46.88.59,0,2.94-2.27,6.39-2.27,5.5,0,8.44,5.51,8.44,10.42,0,5.63-4,11.64-10.12,11.64-2,0-4-1-4.33-1-.59,0-.67.88-.67,1.34,0,3.19,2.6,2.19,2.6,4.24,0,2.36-3.82,2.65-5.46,2.65-5.63,0-10-2.06-10-4.2,0-1.89,1.72-1.18,2.48-2.82.42-.88.59-2.09.59-6.76ZM113.19,507c-1.51,0-2,.63-2,8.28,0,1.38.67,1.89,2.14,1.89,2.61,0,3-2.82,3-4.84S115.83,507,113.19,507Z" transform="translate(-1.71 0.33)"/><path class="cls-3" d="M138.43,512.55c-.46,0-1.14-.13-1.14.59,0,2.1,2.74,3.86,4.71,3.86,3.15,0,4.7-1.89,5.59-1.89s1.64,1.3,1.64,2.1c0,3.23-5.93,5.59-9.71,5.59-7.56,0-11.47-5.46-11.47-10.88,0-6.47,5.51-11.18,11.81-11.18,7.14,0,10.29,5.51,10.29,8.66,0,2.77-1.26,3.15-2.61,3.15Zm3.65-5.3a2.45,2.45,0,0,0-2.47-2.68,2.79,2.79,0,0,0-2.53,2.77c0,1.51,1.43,1.17,2.53,1.17S142.08,508.77,142.08,507.25Z" transform="translate(-1.71 0.33)"/><path class="cls-3" d="M154,509.48c0-4.12-2.61-1.81-2.61-4.37,0-3.32,9.83-4.24,10.21-4.24,1.6,0,1.64.42,1.81,1.85,0,.5,0,1.47.71,1.47,1,0,1.64-3.32,5.25-3.32a4.58,4.58,0,0,1,4.67,4.87,5.14,5.14,0,0,1-5.17,5c-2.73,0-3.49-2.39-4.58-2.39s-1,2.81-1,3.57a38.68,38.68,0,0,0,.34,4.62c.25,1.85,3.45.71,3.45,3.23s-3.7,2.86-8.32,2.86c-1.93,0-7.65.08-7.65-2.81,0-1.77,1.94-1.77,2.4-3.24A21.11,21.11,0,0,0,154,512Z" transform="translate(-1.71 0.33)"/><path class="cls-3" d="M196.18,515.15c-1,0-2.06-.33-3.07-.33a33.51,33.51,0,0,0-4.28.16,1.23,1.23,0,0,1-1.26-1.26,22.24,22.24,0,0,1,1.68-5.21,2.22,2.22,0,0,1,2.27-1.51c1,0,2,.34,3.06.34a31.85,31.85,0,0,0,4.29-.17,1.24,1.24,0,0,1,1.26,1.26,22.71,22.71,0,0,1-1.68,5.21A2.22,2.22,0,0,1,196.18,515.15Z" transform="translate(-1.71 0.33)"/><path class="cls-3" d="M233,516.66a2.5,2.5,0,0,0,2.56-2.6c0-3.49-4.41-.08-4.41-3.95,0-3.07,6.35-3.28,8.49-3.28,7.9,0,8.36,2.23,8.36,3.45a2.15,2.15,0,0,1-1.93,2c-1.1.13-1.18.34-1.48,1.43-1.63,6.14-7.56,9.08-13.52,9.08-8.91,0-16.68-6.18-16.68-15.46,0-8.87,7.52-15.17,16.51-15.17,3.7,0,5.71,1.14,6.81,1.14.75,0,1.84-.63,2.6-.63,2.6,0,4.16,4.28,4.16,6.42s-1.05,4.16-3.32,4.16c-4.16,0-4.16-5.84-9.87-5.84-3.66,0-6,3-6,7.48C225.24,513.56,230.28,516.66,233,516.66Z" transform="translate(-1.71 0.33)"/><path class="cls-3" d="M261.19,514.44c0,4.95,2.48,3.15,2.48,5.37,0,2.86-5.33,2.86-7.22,2.86-7.23,0-7.52-1.64-7.52-2.65,0-1.51,1.72-1.59,2.22-2.89.55-1.47.63-7.57.17-9.12s-2.52-1-2.52-2.9c0-3,10.67-4.24,11.09-4.24,1.26,0,1.3,1,1.3,1.85Zm-8.31-14.91c-1.77,0-3.66-.8-3.66-2.86,0-2.77,5.55-3.91,7.69-3.91,1.68,0,4.07.55,4.07,2.65C261,498.68,255.27,499.53,252.88,499.53Z" transform="translate(-1.71 0.33)"/><path class="cls-3" d="M286.06,512.17c0,7.39,2.52,3.36,2.52,5.63s-3.28,5-6.34,5c-3.32,0-3.41-2.15-4.46-2.15-.5,0-1,.55-2,1.06a7.74,7.74,0,0,1-4.12,1.09c-3.48,0-7-1.85-7-6,0-3,2.86-6.68,10.25-6.68,1.3,0,1.89.09,1.89-1.43s0-4.28-2-4.28c-2.53,0-2.78,4.53-6.52,4.53a2.26,2.26,0,0,1-2.35-2.31c0-3.57,7.1-5.88,11.09-5.88,2.4,0,8.95.93,8.95,7.23Zm-12.6,3.7c0,1.09.58,2.26,1.8,2.26,1.6,0,1.73-1.72,1.73-3,0-.92,0-2-1.14-2A2.56,2.56,0,0,0,273.46,515.87Z" transform="translate(-1.71 0.33)"/><path class="cls-3" d="M289.92,512.5c0-7.51,6.59-11.76,13.53-11.76a11.18,11.18,0,0,1,11.55,11c0,6.89-7.4,11.09-13.57,11.09S289.92,519.14,289.92,512.5Zm11.72-6.8a2.21,2.21,0,0,0-2.06,2.52c.17,2.65.92,9.12,3.82,9.28,1.6.09,1.94-1.26,1.94-2.6C305.34,513,304.5,505.7,301.64,505.7Z" transform="translate(-1.71 0.33)"/><path class="cls-3" d="M356.45,516c0,3.57,2.06,2.69,2.06,4.33,0,2.43-5.38,2.39-6.93,2.39-1.3,0-6.39,0-6.39-2.14,0-1.22,1.18-1.18,1.52-3.32A23.41,23.41,0,0,0,347,513c0-2.1,0-6.05-3-6.05-2.56,0-2.47,2.18-2.47,4.08v4.87c0,3.48,1.68,2.77,1.68,4.28,0,2.44-4.79,2.48-6.39,2.48-6,0-7.39-1.26-7.39-2.56,0-1.68,1.64-.93,2.35-3.66.5-2,.5-7.52.5-9.83,0-1.89-.12-3.82-.16-5.71-.09-3-2.61-1.93-2.61-3.91,0-3.36,10.92-4.24,11-4.24,1.26,0,1.34.38,1.34,1.6l-.25,8c0,.8-.08,2.14,1,2.14,1.26,0,1.8-3.74,6.51-3.74,7.73,0,7.18,7.27,7.22,8.45Z" transform="translate(-1.71 0.33)"/><path class="cls-3" d="M380.85,512.17c0,7.39,2.52,3.36,2.52,5.63s-3.27,5-6.34,5c-3.32,0-3.4-2.15-4.45-2.15-.51,0-1.05.55-2,1.06a7.7,7.7,0,0,1-4.11,1.09c-3.49,0-7-1.85-7-6,0-3,2.86-6.68,10.25-6.68,1.3,0,1.89.09,1.89-1.43s0-4.28-2-4.28c-2.52,0-2.77,4.53-6.51,4.53a2.26,2.26,0,0,1-2.36-2.31c0-3.57,7.1-5.88,11.09-5.88,2.4,0,9,.93,9,7.23Zm-15-18.44c0-1.93,3.83-2.35,5.13-2.35.67,0,3.53.21,3.53,1.26,0,.46-.34.58-.34,1,0,1.14,2.94,1.72,2.94,3.49,0,1.34-1.18,1.55-2.27,1.55C369.09,498.64,365.81,494.78,365.81,493.73Zm2.44,22.14c0,1.09.59,2.26,1.81,2.26,1.59,0,1.72-1.72,1.72-3,0-.92,0-2-1.14-2A2.57,2.57,0,0,0,368.25,515.87Z" transform="translate(-1.71 0.33)"/><path class="cls-3" d="M396.47,515.19c0,4.08,1.43,3.36,1.43,5,0,2.6-5.58,2.52-7.31,2.52s-6,0-6-2.52c0-2,1.93-.21,2.06-4.33l.17-6.3c.08-3.11-2.48-2.1-2.48-4.32s9.66-4.33,10.5-4.33a1.56,1.56,0,0,1,1.51,1.64c0,.25,0,.5,0,.75,0,.51.21,1.1.84,1.1s1.05-.89,1.89-1.77a5.84,5.84,0,0,1,4.49-1.72c8.7,0,7.23,8.53,7.65,14.91.21,3.32,1.93,2.56,1.93,4.37,0,.76.17,2.52-7.73,2.52-1.51,0-5.54.08-5.54-2.27,0-1.51,1.38-.8,1.59-3.53.21-3,1.39-9.7-2.56-9.7-2.69,0-2.44,2.9-2.44,4.79Z" transform="translate(-1.71 0.33)"/><path class="cls-3" d="M424.87,530.74c-7.78,0-10.72-2.94-10.72-5.63,0-2.44,2.31-2.48,2.31-3.11s-2.26-1.72-2.26-3.57c0-3,3.4-3.87,3.4-4.45s-2.86-2.44-2.86-5.55c0-5.08,6.35-7.43,10.59-7.43,2.14,0,5,.79,6.51.79,3.19,0,4.79-2.22,5.42-2.22,1,0,1.38,1.26,1.38,2.05,0,2.36-2.35,4-2.35,4.5s.13.88.13,1.3c0,5.67-6.6,7.61-11.22,7.61-.71,0-1.43-.13-2.18-.13a1.06,1.06,0,0,0-1.14,1.13c0,1.31,1.85,1.56,2.82,1.56,1.3,0,6.17-.72,7.85-.72,4.37,0,6.22,2.48,6.22,5C438.77,525.65,435.16,530.74,424.87,530.74Zm.42-3.62c1.38,0,4.53-.21,4.53-2.14,0-.88-.84-1.26-1.64-1.26-.63,0-2.26.25-3.61.25-1,0-3.23-.33-3.69-.33s-.51.38-.51.67C420.37,526.54,423.65,527.12,425.29,527.12Zm.25-23.06c-1.64,0-2.35,1.56-2.35,3s.42,5.08,2.56,5.08c1.89,0,2.52-1.64,2.52-3.28S427.89,504.06,425.54,504.06Z" transform="translate(-1.71 0.33)"/><path class="cls-3" d="M464.81,515.19c0,4.08,1.42,3.36,1.42,5,0,2.6-5.58,2.52-7.3,2.52s-6,0-6-2.52c0-2,1.93-.21,2.06-4.33l.17-6.3c.08-3.11-2.48-2.1-2.48-4.32s9.66-4.33,10.5-4.33a1.56,1.56,0,0,1,1.51,1.64c0,.25,0,.5,0,.75,0,.51.21,1.1.84,1.1s1.05-.89,1.89-1.77a5.85,5.85,0,0,1,4.5-1.72c8.69,0,7.22,8.53,7.64,14.91.21,3.32,1.93,2.56,1.93,4.37,0,.76.17,2.52-7.73,2.52-1.51,0-5.54.08-5.54-2.27,0-1.51,1.39-.8,1.6-3.53.21-3,1.38-9.7-2.57-9.7-2.69,0-2.43,2.9-2.43,4.79Z" transform="translate(-1.71 0.33)"/><path class="cls-3" d="M509.37,516c0,3.57,2.06,2.69,2.06,4.33,0,2.43-5.38,2.39-6.93,2.39-1.3,0-6.39,0-6.39-2.14,0-1.22,1.18-1.18,1.51-3.32a22.53,22.53,0,0,0,.3-4.2c0-2.1,0-6.05-3-6.05-2.56,0-2.47,2.18-2.47,4.08v4.87c0,3.48,1.68,2.77,1.68,4.28,0,2.44-4.79,2.48-6.39,2.48-6,0-7.39-1.26-7.39-2.56,0-1.68,1.64-.93,2.35-3.66.5-2,.5-7.52.5-9.83,0-1.89-.12-3.82-.16-5.71-.09-3-2.61-1.93-2.61-3.91,0-3.36,10.92-4.24,11-4.24,1.26,0,1.34.38,1.34,1.6l-.25,8c0,.8-.08,2.14,1,2.14,1.26,0,1.8-3.74,6.51-3.74,7.73,0,7.18,7.27,7.22,8.45Z" transform="translate(-1.71 0.33)"/><path class="cls-3" d="M533.77,512.17c0,7.39,2.52,3.36,2.52,5.63s-3.27,5-6.34,5c-3.32,0-3.4-2.15-4.45-2.15-.51,0-1,.55-2,1.06a7.7,7.7,0,0,1-4.11,1.09c-3.49,0-7-1.85-7-6,0-3,2.86-6.68,10.25-6.68,1.3,0,1.89.09,1.89-1.43s0-4.28-2-4.28c-2.52,0-2.77,4.53-6.51,4.53a2.26,2.26,0,0,1-2.36-2.31c0-3.57,7.1-5.88,11.09-5.88,2.4,0,8.95.93,8.95,7.23Zm-12.6,3.7c0,1.09.59,2.26,1.81,2.26,1.59,0,1.72-1.72,1.72-3,0-.92,0-2-1.14-2A2.57,2.57,0,0,0,521.17,515.87Z" transform="translate(-1.71 0.33)"/><path class="cls-3" d="M549.39,515.19c0,4.08,1.43,3.36,1.43,5,0,2.6-5.59,2.52-7.31,2.52s-6,0-6-2.52c0-2,1.93-.21,2.06-4.33l.16-6.3c.09-3.11-2.48-2.1-2.48-4.32s9.67-4.33,10.51-4.33a1.56,1.56,0,0,1,1.51,1.64c0,.25,0,.5,0,.75,0,.51.21,1.1.84,1.1s1-.89,1.89-1.77a5.84,5.84,0,0,1,4.49-1.72c8.7,0,7.23,8.53,7.65,14.91.21,3.32,1.93,2.56,1.93,4.37,0,.76.17,2.52-7.73,2.52-1.51,0-5.54.08-5.54-2.27,0-1.51,1.38-.8,1.59-3.53.21-3,1.39-9.7-2.56-9.7-2.69,0-2.44,2.9-2.44,4.79Z" transform="translate(-1.71 0.33)"/><path class="cls-3" d="M594,516c0,3.57,2.06,2.69,2.06,4.33,0,2.43-5.38,2.39-6.94,2.39-1.3,0-6.38,0-6.38-2.14,0-1.22,1.18-1.18,1.51-3.32a23.41,23.41,0,0,0,.3-4.2c0-2.1,0-6.05-3-6.05-2.56,0-2.48,2.18-2.48,4.08v4.87c0,3.48,1.68,2.77,1.68,4.28,0,2.44-4.79,2.48-6.38,2.48-6,0-7.4-1.26-7.4-2.56,0-1.68,1.64-.93,2.36-3.66.5-2,.5-7.52.5-9.83,0-1.89-.13-3.82-.17-5.71-.08-3-2.6-1.93-2.6-3.91,0-3.36,10.92-4.24,11-4.24,1.26,0,1.35.38,1.35,1.6l-.26,8c0,.8-.08,2.14,1,2.14,1.26,0,1.81-3.74,6.51-3.74,7.73,0,7.19,7.27,7.23,8.45Z" transform="translate(-1.71 0.33)"/><rect class="cls-4" x="50.31" y="410.2" width="6.72" height="6.72" transform="translate(-351.97 310.18) rotate(-68.21)"/><path class="cls-5" d="M31.56,473.81a6,6,0,1,0-6-6A6,6,0,0,0,31.56,473.81Z" transform="translate(-1.71 0.33)"/><path class="cls-5" d="M31.56,451.35a16.5,16.5,0,1,1,0,33v-8a8.48,8.48,0,0,0,0-16.95Zm0,0h0v8h0a8.48,8.48,0,0,0,0,16.95h0v8h0a16.5,16.5,0,0,1,0-33Z" transform="translate(-1.71 0.33)"/><path class="cls-6" d="M31.56,456.8a11.05,11.05,0,1,1,0,22.1v-2.58a8.48,8.48,0,0,0,0-16.95Zm0,0h0v2.57a8.48,8.48,0,0,0,0,16.95v2.58h0a11.05,11.05,0,1,1,0-22.1Z" transform="translate(-1.71 0.33)"/><polygon class="cls-6" points="38.38 462.54 39.03 463.67 31.15 468.22 38.99 472.74 38.34 473.87 30.46 469.32 30.46 478.37 29.16 478.37 29.16 469.28 21.32 473.8 20.67 472.67 28.55 468.13 20.71 463.6 21.36 462.47 29.24 467.02 29.24 457.97 30.54 457.97 30.54 467.07 38.38 462.54"/><rect class="cls-7" x="30.09" y="458.79" width="7.65" height="1.47" rx="0.32" transform="translate(-388.81 272.6) rotate(-61.8)"/><path class="cls-8" d="M33.39,458.66l1.55.83a.69.69,0,0,1,.28.93L28.14,473.6a.68.68,0,0,1-.93.28l-1.55-.83a.68.68,0,0,1-.28-.92l7.08-13.19A.69.69,0,0,1,33.39,458.66Z" transform="translate(-1.71 0.33)"/><path class="cls-9" d="M30.91,444.25A21.59,21.59,0,0,1,51,458H10.78A21.61,21.61,0,0,1,30.91,444.25Z" transform="translate(-1.71 0.33)"/><path class="cls-10" d="M54.89,413.83l3.59,1.71a1.77,1.77,0,0,0,2.18-.7l4.63-11.77-10.4-5.47v16.23Zm0,54.3V448.81L55,449c1.12,3.08,5.46,5.05,8.18,4.63L80,451c3.57-.55,5.26-4.47,4-9.1l-2.53-9.37,49.2-7.16c4.42-.65,12,8.31,13.83,17.89l-40.39,9.37-7.23,7.22c-1.79,1.8-3.92,3.75-6.44,4.1l-32,4.49a8.36,8.36,0,0,1-3.57-.32Zm0-38.64V414.62l3.41,1.62a1.93,1.93,0,0,1,1,2.12Zm-.72-32.27-7.7.74c-2.68,3.65-2.68,7.49.29,11.52,0,.55.41.67,1.16,1l7,3.32V397.6l-.72-.38Zm.72,17.4v14.87l-3.65,9.29,3.65,10v19.32a16.31,16.31,0,0,1-7.75-5.73L29.19,438.59c1.95-10.08,7.61-19.14,15.71-27.22a1.88,1.88,0,0,1,2.69-.21Z" transform="translate(-1.71 0.33)"/><path class="cls-6" d="M54.17,397.22l-7.7.74c-2.68,3.65-2.68,7.49.29,11.52C49.85,406.4,47.24,401.68,54.17,397.22Z" transform="translate(-1.71 0.33)"/><path class="cls-5" d="M128.44,473.81a6,6,0,1,0-6-6A6,6,0,0,0,128.44,473.81Z" transform="translate(-1.71 0.33)"/><path class="cls-5" d="M128.44,451.35a16.5,16.5,0,0,1,0,33v-8a8.48,8.48,0,0,0,0-16.95Zm0,0h0v8h0a8.48,8.48,0,0,0,0,16.95h0v8h0a16.5,16.5,0,1,1,0-33Z" transform="translate(-1.71 0.33)"/><path class="cls-6" d="M128.44,456.8a11,11,0,1,1,0,22.1v-2.58a8.48,8.48,0,0,0,0-16.95Zm0,0h0v2.57a8.48,8.48,0,0,0,0,16.95v2.58h0a11.05,11.05,0,1,1,0-22.1Z" transform="translate(-1.71 0.33)"/><polygon class="cls-6" points="135.25 462.54 135.9 463.67 128.03 468.22 135.86 472.74 135.21 473.87 127.34 469.32 127.34 478.37 126.03 478.37 126.03 469.28 118.2 473.8 117.55 472.67 125.42 468.13 117.59 463.6 118.24 462.47 126.11 467.02 126.11 457.97 127.42 457.97 127.42 467.07 135.25 462.54"/><path class="cls-11" d="M47.18,462.45l.93,1.63c2.08,3.66,6.09,7.31,10.35,7.12l32.21-1.49c2.53-.11,4.89-1.86,6.91-3.49l8.11-6.54,37-5c-3.8-3.94-9-6.28-14.4-7.62l-24.17,5.6-7.23,7.22c-1.79,1.8-3.92,3.75-6.44,4.1l-32,4.49C54.24,469,49.76,465.85,47.18,462.45Z" transform="translate(-1.71 0.33)"/><rect class="cls-4" x="56.76" y="391.22" width="0.94" height="10.15"/><rect class="cls-4" x="56.19" y="388.58" width="2.08" height="2.64" rx="0.57"/><rect class="cls-4" x="58.27" y="389.43" width="1.7" height="0.94"/><path class="cls-10" d="M64.15,386a12.47,12.47,0,0,1,0,7.06,3.61,3.61,0,0,1,0-7.06Z" transform="translate(-1.71 0.33)"/><path class="cls-6" d="M57.74,407.55c2.87,0,5.21-1.61,5.21-3.58s-2.34-3.57-5.21-3.57S52.53,402,52.53,404,54.87,407.55,57.74,407.55Z" transform="translate(-1.71 0.33)"/><path class="cls-12" d="M57.62,405.88A1.91,1.91,0,1,0,55.71,404,1.92,1.92,0,0,0,57.62,405.88Z" transform="translate(-1.71 0.33)"/><rect class="cls-7" x="54.64" y="403.07" width="10.6" height="2.46" rx="1.23"/><path class="cls-6" d="M65.65,404.8a.83.83,0,1,0-.82-.83A.83.83,0,0,0,65.65,404.8Z" transform="translate(-1.71 0.33)"/><path class="cls-6" d="M80.39,431.66c.67.6.87.91,2.87.62l41.56-6s4-.2,4.52-1.45-.49-6.85-1.68-7.28c-.58-.22.72-.11-4,.22s-9.64,0-10.52.3c-1.75.5-6,2.8-11.77,3.23s-16.11-.12-17.67.44C81.1,422.64,79.06,430.43,80.39,431.66Z" transform="translate(-1.71 0.33)"/><path class="cls-6" d="M130.07,423.35l29-4.15a1,1,0,0,1,1.2.89h0a1.13,1.13,0,0,1-.89,1.2l-34.44,4.93C120.2,426.9,129.09,423.49,130.07,423.35Z" transform="translate(-1.71 0.33)"/><path class="cls-13" d="M100.56,456.21l2.27-2.28-40.5,5.16c-4,.51-8.25-2.48-10.68-5.71l-12.09-16c1.69-8.75,6.49-16.55,13.07-23.8l-1.45-.69c-7,7.71-12.13,16-13.94,25.32l12.81,17c2.58,3.42,7.08,6.59,11.32,6Z" transform="translate(-1.71 0.33)"/><path class="cls-14" d="M104.13,452.64c-4-.47-7.28-1.4-11.1-7.77-2.61-4.36-5.38-10.47,1.51-12.49,7.08-2.07,23.3-5,32.94-2.3s15.08,8.82,16.21,13.39Z" transform="translate(-1.71 0.33)"/><path class="cls-9" d="M105.48,451.41c-3.55-.42-6.51-1.26-9.93-7-2.34-3.9-4.81-9.38,1.36-11.18,6.33-1.85,20.85-4.51,29.47-2.06,9,2.56,13.81,8.26,14.59,12.38a1.05,1.05,0,0,1,0,.5l-32.46,7.53C107.42,451.6,106.41,451.52,105.48,451.41Z" transform="translate(-1.71 0.33)"/><rect x="100.57" y="443.77" width="30.11" height="0.92" transform="translate(-99.07 37.93) rotate(-13.05)"/><rect x="100.1" y="442.12" width="30.11" height="0.92" transform="translate(-98.71 37.78) rotate(-13.05)"/><rect x="99.63" y="440.48" width="30.11" height="0.92" transform="translate(-98.35 37.63) rotate(-13.06)"/><path class="cls-6" d="M143.69,443.47l7.82,15.18-.69.53s-2.38-.61-2.38-1.38-8.56-13.45-8.56-13.45Z" transform="translate(-1.71 0.33)"/><path class="cls-12" d="M46.47,398c-2.68,3.65-2.68,7.49.29,11.52l-.16.16.16-.16C50,406,47.82,399,46.47,398Z" transform="translate(-1.71 0.33)"/><path class="cls-10" d="M45.81,399C44,402,44,405.18,46.09,408.5,47.81,405.5,46.88,401,45.81,399Z" transform="translate(-1.71 0.33)"/><path class="cls-12" d="M64.15,386a12.47,12.47,0,0,1,0,7.06,12.47,12.47,0,0,1,0-7.06Z" transform="translate(-1.71 0.33)"/><path class="cls-9" d="M105.33,466.06A4.72,4.72,0,0,1,108,457l20.76,3.26h0a8.06,8.06,0,0,1,1.8.3,7.62,7.62,0,1,1-4.26,14.63,7.38,7.38,0,0,1-1.68-.71h0Z" transform="translate(-1.71 0.33)"/><path class="cls-8" d="M107.44,458.81a2.83,2.83,0,1,1-3.5,1.92A2.82,2.82,0,0,1,107.44,458.81Z" transform="translate(-1.71 0.33)"/><path class="cls-8" d="M129.71,463.48a4.55,4.55,0,1,1-5.64,3.1A4.55,4.55,0,0,1,129.71,463.48Z" transform="translate(-1.71 0.33)"/><path class="cls-10" d="M75.09,411.34h.2c3.37,0,4.77,2.4,4.62,5.77l-1.26,27.94-6.4,1L69,417.46C68.58,414.11,71.72,411.34,75.09,411.34Z" transform="translate(-1.71 0.33)"/><path class="cls-10" d="M109,413.51l0,.2c.64,3.31-1.49,7.07-4.85,7.32l-28.34,2.11-.79-11.8,26.76-2.68C106.44,408.21,100.82,369.41,109,413.51Z" transform="translate(-1.71 0.33)"/><path class="cls-6" d="M71.59,446.14c-3.72.76-9.05,3-8.45,7.48l16.42-2.54-.91-6Z" transform="translate(-1.71 0.33)"/><path class="cls-15" d="M92.45,380.27c-.41-2-1.57-4.09-4.6-4.19a1.34,1.34,0,0,1-1-2.27c.25-.33-1-.44-.22-1.15.33-.28-.7-.4-.33-.91.7-1,.13-.74-.29-.91-1-.42.35-1.89.77-2.93a11.59,11.59,0,0,0,.38-3.78c0-1,14.25-2.93,13.31,2.1s-4.09,10.58-3.15,13.51S93.61,383.73,92.45,380.27Z" transform="translate(-1.71 0.33)"/><path d="M108,409c-.74-3.29-2-16.89-3-22-.94-4.57-2.78-8.86-7.82-8.92a3.28,3.28,0,0,1-4.79,1.13c-3,1.53-3.73,10.18-3.09,13.47.07.35.12.7.17,1.07l3.18-4.54a3.26,3.26,0,0,1,4.39-1h0c1.24,1.23,2,3,1,4.39L89.37,405c-.06,2.45.12,4.37,1.11,5.16C94.54,413.33,108.76,412.2,108,409Z" transform="translate(-1.71 0.33)"/><path class="cls-16" d="M97,388.21h0a3.26,3.26,0,0,0-4.39,1l-3.18,4.54-5.74,8.17L70,400.47a7.63,7.63,0,0,0-.8-.05c-3.84-.4-6.85.2-7.11,3.69s1.83.76,2-.26a1.52,1.52,0,0,1,2.77-.35c1.18,1.9,2.16.36,3.53.4l13.29,4.27a3.88,3.88,0,0,0,3.06-.37,3.29,3.29,0,0,0,1.42-1.16L89.37,405l8.68-12.36C99.05,391.16,98.28,389.44,97,388.21Z" transform="translate(-1.71 0.33)"/><path class="cls-10" d="M86.31,362.18c0,1.57,1.9,3.64,4.71,5s7.24,6.06,6.79,7.24,4.59-2.31,5-7.24S90.62,353.82,86.31,362.18Z" transform="translate(-1.71 0.33)"/><path class="cls-6" d="M90.46,377.69" transform="translate(-1.71 0.33)"/><path class="cls-6" d="M84.81,362.41a10,10,0,1,1,18.59,7.13,7.35,7.35,0,0,0-5.4,1.72l0,0-.26.2h0l-.27.23-.13.12,0,0-.25.23-.14.15-.14.13-.13.14-.1.11,0,0,0,0-.24.28-.13.15-.13.15-.13.16-.11.14,0,.06-.2.27,0,0-.13.17-.11.16-1-.21a9.8,9.8,0,0,0-.59-5.24s-3.48-4.56-8-4.56A1.29,1.29,0,0,1,84.81,362.41Z" transform="translate(-1.71 0.33)"/><path class="cls-6" d="M94.28,374s-1.5,2.79-3.59,3.16l.59.54s2.09-.22,3.64-3.54C94.92,374.19,94.81,373.6,94.28,374Z" transform="translate(-1.71 0.33)"/><rect class="cls-17" x="127.33" y="391.06" width="30.35" height="30.35" transform="translate(-57.89 24.64) rotate(-8.15)"/><path class="cls-9" d="M99.47,384.33h0a4.76,4.76,0,0,1,1.5,6.53L97.75,396l-8-5L93,385.83A4.74,4.74,0,0,1,99.47,384.33Z" transform="translate(-1.71 0.33)"/><path d="M138.61,404.8l-1.88.27a1,1,0,0,1,.09-.52,3.47,3.47,0,0,1,.51-.66,3.94,3.94,0,0,0,.5-.64.7.7,0,0,0,.09-.49.48.48,0,0,0-.18-.35.53.53,0,0,0-.4-.08.66.66,0,0,0-.2.06.47.47,0,0,0-.15.13.51.51,0,0,0-.09.18.62.62,0,0,0,0,.24l-.38.06a1,1,0,0,1,0-.35.73.73,0,0,1,.15-.29,1.09,1.09,0,0,1,.26-.21,1.2,1.2,0,0,1,.35-.11,1,1,0,0,1,.39,0,.81.81,0,0,1,.3.13.78.78,0,0,1,.21.23.76.76,0,0,1,.1.3.91.91,0,0,1-.09.57,3.88,3.88,0,0,1-.58.76c-.29.33-.44.54-.44.62l1.37-.2Z" transform="translate(-1.71 0.33)"/><path d="M140.74,403.8l-.38.05.09.68-.36.05-.1-.67-1.21.17-.05-.32,1-2.06.29,0,.27,1.87.38,0Zm-.8-.22-.19-1.3-.68,1.43Z" transform="translate(-1.71 0.33)"/><path d="M143.62,401.17l-.4,3-.28,0,.4-3Z" transform="translate(-1.71 0.33)"/><path d="M147.6,400.85l-.65,2.73-.41.06.69-2.65-1.45.21-.05-.33,1.83-.27Z" transform="translate(-1.71 0.33)"/><path d="M133.21,413.3a1.39,1.39,0,0,1-1,.69,1.43,1.43,0,0,1-.69,0,1.27,1.27,0,0,1-.55-.32,1.85,1.85,0,0,1-.39-.58,2.61,2.61,0,0,1-.22-.79,2.48,2.48,0,0,1,0-.86,1.88,1.88,0,0,1,.24-.69,1.56,1.56,0,0,1,.45-.47,1.5,1.5,0,0,1,.62-.23,1.5,1.5,0,0,1,1.1.23l-.25-1.74.67-.1.76,5.25-.67.1Zm-.1-.65-.26-1.8a1.4,1.4,0,0,0-1.07-.32.8.8,0,0,0-.38.15.92.92,0,0,0-.26.32,1.41,1.41,0,0,0-.12.5,3,3,0,0,0,0,.66,2,2,0,0,0,.4,1,.77.77,0,0,0,.74.26,1,1,0,0,0,.51-.23A1.73,1.73,0,0,0,133.11,412.65Z" transform="translate(-1.71 0.33)"/><path d="M136.57,413.36a2,2,0,0,1-.78,0,1.51,1.51,0,0,1-.64-.3,1.75,1.75,0,0,1-.47-.57,2.47,2.47,0,0,1-.26-.82,2.67,2.67,0,0,1,0-.85,1.66,1.66,0,0,1,.28-.68,1.53,1.53,0,0,1,.5-.48,1.83,1.83,0,0,1,.7-.25,2.11,2.11,0,0,1,.76,0,1.51,1.51,0,0,1,.62.31,1.84,1.84,0,0,1,.45.57,2.79,2.79,0,0,1,.25.83l0,.16-2.86.42a2.35,2.35,0,0,0,.2.55,1.27,1.27,0,0,0,.31.37.91.91,0,0,0,.38.19,1.34,1.34,0,0,0,.45,0,1.39,1.39,0,0,0,.33-.1.75.75,0,0,0,.28-.18.69.69,0,0,0,.18-.24.55.55,0,0,0,.05-.31l.71-.11a1.58,1.58,0,0,1-.11.55,1.52,1.52,0,0,1-.31.44,1.69,1.69,0,0,1-.46.31A2.24,2.24,0,0,1,136.57,413.36Zm.65-2.51a1.56,1.56,0,0,0-.2-.45,1.24,1.24,0,0,0-.29-.31.89.89,0,0,0-.34-.16,1.07,1.07,0,0,0-.4,0,1.15,1.15,0,0,0-.37.12,1,1,0,0,0-.29.25,1.11,1.11,0,0,0-.18.38,1.81,1.81,0,0,0-.07.49Z" transform="translate(-1.71 0.33)"/><path d="M139.69,412.81l-.67.1-.76-5.25.67-.1Z" transform="translate(-1.71 0.33)"/><path d="M140.71,408.05l-.67.1-.11-.73.67-.1Zm.66,4.52-.68.09-.55-3.79.67-.1Z" transform="translate(-1.71 0.33)"/><path d="M144.88,408.18l-.88,4-.61.09-2-3.59.73-.1,1.43,2.82.58-3.12Z" transform="translate(-1.71 0.33)"/><path d="M147.66,411.74a2.24,2.24,0,0,1-.78,0,1.8,1.8,0,0,1-.64-.3,1.75,1.75,0,0,1-.47-.57,2.53,2.53,0,0,1-.26-.83,2.67,2.67,0,0,1,0-.85,1.87,1.87,0,0,1,.27-.68,1.94,1.94,0,0,1,.51-.48,2,2,0,0,1,.7-.24,1.91,1.91,0,0,1,.76,0,1.4,1.4,0,0,1,.62.31,1.63,1.63,0,0,1,.45.57,2.72,2.72,0,0,1,.25.82l0,.16-2.86.42a2,2,0,0,0,.2.56,1.42,1.42,0,0,0,.31.37.89.89,0,0,0,.38.18,1.12,1.12,0,0,0,.45,0,2,2,0,0,0,.33-.09,1.34,1.34,0,0,0,.28-.18.76.76,0,0,0,.18-.25.63.63,0,0,0,0-.31l.7-.1a1.26,1.26,0,0,1-.11.55,1.28,1.28,0,0,1-.3.43,1.49,1.49,0,0,1-.46.31A2.24,2.24,0,0,1,147.66,411.74Zm.65-2.5a1.78,1.78,0,0,0-.21-.46.9.9,0,0,0-.28-.3.76.76,0,0,0-.34-.16,1.07,1.07,0,0,0-.4,0,1,1,0,0,0-.37.13.86.86,0,0,0-.29.25,1.06,1.06,0,0,0-.18.37,1.89,1.89,0,0,0-.07.5Z" transform="translate(-1.71 0.33)"/><path d="M151.62,407.82a1.6,1.6,0,0,0-.42,0,.91.91,0,0,0-.46.2,1.48,1.48,0,0,0-.35.47l.39,2.69-.67.09-.55-3.79.67-.1.08.52a1.2,1.2,0,0,1,.9-.76l.15,0h.16Z" transform="translate(-1.71 0.33)"/><path d="M152.9,411.83c.33-.05.56-.4.68-1l-2-3.59.73-.11,1.43,2.82.58-3.11.73-.11-.88,4c-.05.24-.1.46-.16.66a2.26,2.26,0,0,1-.19.52,1.09,1.09,0,0,1-.29.37.8.8,0,0,1-.44.18l-.25,0a.66.66,0,0,1-.2,0l-.09-.62.16,0Z" transform="translate(-1.71 0.33)"/><path class="cls-10" d="M90.35,367.7a2.19,2.19,0,0,1-2.18,1.85,1.82,1.82,0,0,1-1.82-1.82c0-1,.71-1.46,1.71-1.46S90.35,366.69,90.35,367.7Z" transform="translate(-1.71 0.33)"/><polyline class="cls-10" points="88.39 367.88 90.78 367.88 90.85 368.24 88.06 368.24"/><rect y="485.5" width="275.74" height="2.52"/><polygon points="151.91 468.52 275.02 469.48 151.91 470.44 151.91 468.52"/><polygon points="158.39 459.88 243.34 460.84 158.39 461.8 158.39 459.88"/><polygon points="155.51 451.96 203.75 452.92 155.51 453.88 155.51 451.96"/><polygon points="152.63 444.04 204.47 445 152.63 445.96 152.63 444.04"/><rect class="cls-18" y="355.54" width="275.74" height="132.47"/></svg>